<svg class="icon" viewBox="0 0 1024 1024" width="200" height="200"><path d="M512.197 91.981c15.975 0 28.912 12.938 28.912 28.969v115.819a28.969 28.969 0 11-57.937 0V120.95a29.137 29.137 0 0129.025-28.969zM302.159 872h419.963V602a209.981 209.981 0 10-419.963 0v270zm479.982 0h150.075a30.038 30.038 0 010 60.019H92.178a29.981 29.981 0 110-60.019h150.019V602a270 270 0 01539.944 0v270zm-3.6-701.606a28.969 28.969 0 018.493 39.993l-63 97.144a28.969 28.969 0 01-48.6-31.556l63.113-97.144a28.969 28.969 0 0139.994-8.437zm180.9 208.687a28.969 28.969 0 01-14.063 38.419l-104.794 48.937a28.969 28.969 0 01-24.525-52.48l104.907-48.938a29.025 29.025 0 0138.475 14.062zm-894.544 0a28.913 28.913 0 0138.475-14.062l105.019 48.937a29.081 29.081 0 014.218 50.006 28.856 28.856 0 01-28.8 2.42L78.96 417.5a29.081 29.081 0 01-14.062-38.419zm180.956-208.687a28.8 28.8 0 0140.05 8.493l63 97.144a28.969 28.969 0 11-48.656 31.444l-62.888-97.088a28.8 28.8 0 018.607-39.993h-.113zm0 0"/></svg>