<svg class="icon" viewBox="0 0 1170 1024" xmlns="http://www.w3.org/2000/svg" width="228.516" height="200"><defs><style/></defs><path d="M431.298 689.756a28.473 28.473 0 00-16.155 2.136 17.275 17.275 0 00-9.59 9.809l-44.795 136.704c-1.638 8.047 5.444 15.523 16.29 17.182a23.6 23.6 0 0025.176-10.867l44.99-136.788c2.49-8.305-4.593-16.403-15.916-18.166zm170.072-51.15a28.473 28.473 0 00-16.154 2.135 17.275 17.275 0 00-9.592 9.8l-43.798 164.928c-1.65 8.047 5.443 15.523 16.279 17.171a23.6 23.6 0 0025.176-10.856l44.006-165.002c2.488-8.326-4.563-16.404-15.917-18.187zm37.308 217.054a28.473 28.473 0 00-16.155 2.135 17.275 17.275 0 00-9.591 9.81l-44.794 136.704c-1.638 8.047 5.444 15.523 16.29 17.182a23.6 23.6 0 0025.175-10.867l44.991-136.788c2.489-8.305-4.593-16.403-15.916-18.166zm170.072-51.15a28.473 28.473 0 00-16.155 2.135 17.275 17.275 0 00-9.591 9.799l-43.799 164.93c-1.648 8.045 5.444 15.521 16.28 17.17a23.6 23.6 0 0025.176-10.856l44.006-165.002c2.488-8.326-4.563-16.404-15.917-18.187z"/><path d="M868.154 827.694h-2.478a28.535 28.535 0 110-57.03h2.478a243.578 243.578 0 00244.864-247.434 250.287 250.287 0 00-171.234-237.772l-14.267-4.998-4.677-13.127a312.926 312.926 0 00-586.47-12.847l-6.709 18.125h-23.008A250.567 250.567 0 0057.03 523.188c0 141.018 103.171 247.435 240.01 247.435h19.505a28.535 28.535 0 110 57.03h-19.453C130.422 827.694 0 693.997 0 523.188a307.959 307.959 0 01291.67-307.793 370.007 370.007 0 01680.796 19.991A307.503 307.503 0 011170.1 523.2a299.664 299.664 0 01-301.945 304.506z"/><path d="M770.474 721.359q19.832 6.063 13.769 25.895l-45.474 148.739q-6.063 19.832-25.895 13.768-19.832-6.063-13.769-25.895l45.474-148.738q6.063-19.832 25.895-13.769zm-280.209 68.227q28.835 11.668 17.168 40.504l-38.894 96.12q-11.668 28.835-40.503 17.167-28.836-11.668-17.168-40.503l38.893-96.12q11.668-28.835 40.504-17.168z"/></svg>