<svg class="icon" viewBox="0 0 1024 1024" xmlns="http://www.w3.org/2000/svg" width="200" height="200"><defs><style/></defs><path d="M866.137 796.297V250.461c21.434-7.466 36.847-27.816 36.847-51.778 0-30.284-24.564-54.909-54.909-54.909-19.748 0-36.967 10.416-46.66 26.07H239.684c-9.693-15.654-26.913-26.07-46.66-26.07-30.285 0-54.91 24.565-54.91 54.909 0 22.036 13.005 41 31.79 49.73v344.445c0 9.994 8.068 18.062 18.062 18.062s18.062-8.068 18.062-18.062V251.966a54.843 54.843 0 0041.362-45.938h546.38c2.77 20.711 17.098 37.75 36.304 44.493v545.836a54.782 54.782 0 00-33.716 33.716H423.375c-9.994 0-18.062 8.068-18.062 18.062s8.068 18.063 18.062 18.063h372.922c7.466 21.433 27.816 36.846 51.778 36.846 30.284 0 54.909-24.564 54.909-54.909 0-24.022-15.413-44.372-36.847-51.838z"/><path d="M707.13 480.391c12.584-12.583 19.508-29.32 19.508-47.142s-6.924-34.559-19.507-47.142l-63.458-63.458a66.21 66.21 0 00-47.142-19.507c-17.822 0-34.56 6.924-47.142 19.507L185.377 686.66c-18.724 18.725-36.967 86.036-58.882 172.192-2.107 8.188-4.034 15.895-5.84 22.819-1.566 6.02.12 12.463 4.395 16.978a18.08 18.08 0 0016.737 5.238c53.705-11.018 180.802-38.833 201.393-59.424L707.13 480.39zM317.894 818.514c-11.139 8.97-84.23 28.417-155.093 43.89 11.5-45.034 35.401-137.633 48.045-150.276L509.11 413.863l108.975 104.399-300.192 300.252zm363.71-363.71l-37.93 37.93-108.975-104.4 40.218-40.217c5.96-5.96 13.788-8.911 21.615-8.911 7.826 0 15.653 2.95 21.614 8.91l63.458 63.459c11.86 11.981 11.86 31.307 0 43.228z"/></svg>