<svg class="icon" viewBox="0 0 1024 1024" xmlns="http://www.w3.org/2000/svg" width="200" height="200"><defs><style/></defs><path d="M506.5 64C264.6 64 64 264.6 64 517.5 64 759.4 264.6 960 506.5 960 759.4 960 960 759.4 960 517.5 960 264.6 759.4 64 506.5 64zm-23.7 226.3c5.4-5.6 12.9-8.8 20.7-8.7h17c16.5 0 29.4 13.3 28.8 29.8l-11.1 284.3c-.3 8.3-7.1 14.9-15.4 15h-21.6c-8.3-.1-15-6.7-15.4-15l-11-284.3c-.4-7.8 2.5-15.5 8-21.1zM512 729.6c-21.2 0-38.4-16.3-38.4-36.5 0-20.1 17.2-36.5 38.4-36.5s38.4 16.3 38.4 36.5-17.2 36.5-38.4 36.5z"/></svg>