<svg class="icon" viewBox="0 0 1024 1024" xmlns="http://www.w3.org/2000/svg" width="200" height="200"><defs><style/></defs><path d="M0 512.28C0 229.235 229.376 0 512 0s512 229.236 512 511.72v.56a511.069 511.069 0 01-149.807 362.006A511.604 511.604 0 01512 1024C228.817 1024 0 794.763 0 512.28zm546.234 0l178.828-178.735a23.273 23.273 0 000-33.14l-1.094-1.071a23.273 23.273 0 00-33.14 0L512 478.58 333.172 299.334a23.273 23.273 0 00-33.14 0l-1.094 1.07a23.273 23.273 0 000 33.14l178.828 179.27L298.938 691.55a23.273 23.273 0 000 33.117l1.094 1.094a23.273 23.273 0 0033.14 0L512 547.025 690.827 725.76a23.273 23.273 0 0033.14 0l1.095-1.094a23.273 23.273 0 000-33.117l-178.828-179.27z"/></svg>