<svg class="icon" viewBox="0 0 1025 1024" xmlns="http://www.w3.org/2000/svg" width="200.195" height="200"><defs><style/></defs><path d="M581.632 439.296c-16.998 0-30.72-13.722-30.72-30.72s13.722-30.72 30.72-30.72c69.427 0 125.952-56.525 125.952-125.952s-56.525-125.952-125.952-125.952c-57.037 0-107.11 38.502-121.754 93.491-4.403 16.384-21.196 26.215-37.58 21.811-16.384-4.403-26.215-21.196-21.812-37.58 21.71-81.92 96.256-139.264 181.146-139.264 103.322 0 187.392 84.07 187.392 187.392s-84.07 187.494-187.392 187.494z"/><path d="M583.68 377.856H133.12c-16.896 0-30.72 13.824-30.72 30.72s13.824 30.72 30.72 30.72h450.56c16.896 0 30.72-13.824 30.72-30.72s-13.824-30.72-30.72-30.72zM763.7 956.621c-62.26 0-116.84-41.984-132.814-102.093-4.403-16.384 5.428-33.178 21.812-37.58 16.384-4.404 33.177 5.426 37.58 21.81 8.807 33.178 39.015 56.423 73.421 56.423 41.882 0 75.981-34.1 75.981-75.981s-34.1-75.98-75.98-75.98c-17 0-30.72-13.722-30.72-30.72s13.72-30.72 30.72-30.72c75.775 0 137.42 61.644 137.42 137.42S839.475 956.62 763.7 956.62z"/><path d="M765.952 681.984h-604.16c-16.896 0-30.72 13.824-30.72 30.72s13.824 30.72 30.72 30.72h604.16c16.896 0 30.72-13.824 30.72-30.72s-13.824-30.72-30.72-30.72zm71.68-91.136c-16.998 0-30.72-13.722-30.72-30.72s13.722-30.72 30.72-30.72c69.427 0 125.952-56.525 125.952-125.952 0-47.616-26.42-90.726-68.915-112.333-17.715-9.011-36.967-13.619-57.037-13.619-16.998 0-30.72-13.722-30.72-30.72s13.722-30.72 30.72-30.72c29.491 0 58.778 7.066 84.89 20.275 30.31 15.463 55.91 38.912 74.035 67.789 18.637 29.696 28.467 64.102 28.467 99.328 0 103.322-84.07 187.392-187.392 187.392z"/><path d="M839.68 529.408H30.72c-16.896 0-30.72 13.824-30.72 30.72s13.824 30.72 30.72 30.72h808.96c16.896 0 30.72-13.824 30.72-30.72s-13.824-30.72-30.72-30.72z"/></svg>