<svg class="icon" viewBox="0 0 1024 1024" xmlns="http://www.w3.org/2000/svg" width="200" height="200"><defs><style/></defs><path d="M272.691 713.114c-59.597 0-120.627-23.962-167.526-65.741-23.245-20.685-41.472-44.34-54.375-70.349-13.312-26.931-20.07-55.091-20.07-83.66s6.758-56.73 20.07-83.662c12.8-26.01 31.13-49.664 54.375-70.348 46.899-41.78 108.032-65.741 167.526-65.741h66.355l6.452-22.119c14.643-50.38 45.875-95.744 87.859-127.692 43.315-33.076 95.13-50.484 149.811-50.484 56.832 0 110.285 18.74 154.522 54.17 43.008 34.406 73.625 82.637 86.323 135.885l3.891 16.486 16.077 5.427c43.008 14.746 80.077 42.087 107.11 79.156 27.546 37.785 42.189 82.33 42.189 128.921 0 58.368-22.938 113.562-64.614 155.136s-96.768 64.615-155.136 64.615H272.69z"/><path d="M583.27 104.14c25.088 0 49.664 4.2 73.012 12.596 22.528 8.09 43.52 19.763 62.361 34.816 18.637 14.95 34.611 32.666 47.514 52.838 13.107 20.378 22.528 42.701 28.057 66.15l7.885 32.974 32.051 10.956c18.432 6.247 35.738 15.36 51.405 27.034a193.695 193.695 0 0140.755 41.062c23.655 32.461 36.25 70.759 36.25 110.797 0 50.176-19.763 97.587-55.603 133.427-35.84 35.84-83.251 55.604-133.427 55.604H272.69c-26.01 0-52.224-5.223-78.029-15.463-25.088-9.933-49.05-24.678-69.12-42.598-19.968-17.818-36.352-38.912-47.206-61.03-11.162-22.529-16.896-46.08-16.896-69.837 0-23.86 5.632-47.412 16.896-70.042 10.957-22.118 27.238-43.213 47.206-61.03 20.07-17.92 43.93-32.564 69.12-42.599 25.805-10.24 52.02-15.462 78.03-15.462h89.394l12.903-44.237c6.451-22.22 16.486-43.213 29.696-62.362a216.961 216.961 0 0147.309-49.459c37.99-28.877 83.353-44.134 131.276-44.134m0-61.44c-126.668 0-233.472 84.582-267.161 200.397h-43.315C134.964 242.995 0 355.738 0 493.466s134.963 250.47 272.691 250.47H773.53c137.728 0 250.47-112.742 250.47-250.47 0-109.67-71.475-203.47-170.086-237.159C824.832 133.837 714.752 42.701 583.27 42.701zM354.918 816.538h-153.6c-8.396 0-15.36-6.964-15.36-15.36 0-8.5 6.964-15.36 15.36-15.36h153.6c8.5 0 15.36 6.86 15.36 15.36s-6.963 15.36-15.36 15.36zm227.328 0h-153.6c-8.499 0-15.36-6.964-15.36-15.36 0-8.5 6.861-15.36 15.36-15.36h153.6c8.397 0 15.36 6.86 15.36 15.36s-6.963 15.36-15.36 15.36zm240.64 0h-153.6c-8.499 0-15.36-6.964-15.36-15.36 0-8.5 6.964-15.36 15.36-15.36h153.6c8.397 0 15.36 6.86 15.36 15.36s-6.963 15.36-15.36 15.36zm-467.968 70.656h-153.6c-8.396 0-15.36-6.964-15.36-15.36 0-8.5 6.964-15.36 15.36-15.36h153.6c8.5 0 15.36 6.86 15.36 15.36s-6.963 15.36-15.36 15.36zm227.328 0h-153.6c-8.499 0-15.36-6.964-15.36-15.36 0-8.5 6.861-15.36 15.36-15.36h153.6c8.397 0 15.36 6.86 15.36 15.36s-6.963 15.36-15.36 15.36zm240.64 0h-153.6c-8.499 0-15.36-6.964-15.36-15.36 0-8.5 6.964-15.36 15.36-15.36h153.6c8.397 0 15.36 6.86 15.36 15.36s-6.963 15.36-15.36 15.36zM354.918 957.85h-153.6c-8.396 0-15.36-6.964-15.36-15.36 0-8.5 6.964-15.36 15.36-15.36h153.6c8.5 0 15.36 6.86 15.36 15.36s-6.963 15.36-15.36 15.36zm227.328 0h-153.6c-8.499 0-15.36-6.964-15.36-15.36 0-8.5 6.861-15.36 15.36-15.36h153.6c8.397 0 15.36 6.86 15.36 15.36s-6.963 15.36-15.36 15.36zm240.64 0h-153.6c-8.499 0-15.36-6.964-15.36-15.36 0-8.5 6.964-15.36 15.36-15.36h153.6c8.397 0 15.36 6.86 15.36 15.36s-6.963 15.36-15.36 15.36z"/></svg>