<svg class="icon" viewBox="0 0 1024 1024" xmlns="http://www.w3.org/2000/svg" width="200" height="200"><defs><style/></defs><path d="M347.648 826.027h-12.459l7.168 11.946a4.437 4.437 0 01-1.877 5.974 4.779 4.779 0 01-6.485-1.195l-10.24-17.067h-25.6l11.946 20.651h19.456a5.12 5.12 0 014.438 5.12 4.437 4.437 0 01-4.096 4.779h-13.995l6.997 12.117a4.608 4.608 0 01-1.706 6.315 4.779 4.779 0 01-6.486-1.707l-6.144-10.752-6.826 12.288a4.267 4.267 0 01-5.974 1.195 4.779 4.779 0 01-2.218-6.144l9.386-17.067-12.8-21.163-11.605 19.968 9.557 17.067a4.95 4.95 0 01-2.218 6.315 4.267 4.267 0 01-6.144-1.024l-6.656-12.288-7.168 12.117a4.608 4.608 0 01-8.022-4.608l6.315-10.923h-13.995a4.437 4.437 0 01-4.096-4.608 4.608 4.608 0 014.267-4.949h19.456l12.8-22.016H258.56l-9.557 17.067a4.608 4.608 0 01-8.022-4.608l6.998-12.118h-15.36a4.608 4.608 0 110-9.216h16.213l-6.315-10.922a4.608 4.608 0 012.39-6.144 4.779 4.779 0 015.632 1.365l9.045 15.701h22.528l-11.776-20.309h-19.285a4.437 4.437 0 01-4.096-4.608 4.267 4.267 0 014.096-4.608h13.994l-7.68-13.312a4.608 4.608 0 011.707-6.485 4.779 4.779 0 016.315 1.706l8.021 13.995 6.315-10.923a4.779 4.779 0 016.656 0 4.95 4.95 0 011.536 5.632l-9.046 15.531 11.264 18.432 11.947-20.821-9.557-17.067a4.267 4.267 0 012.048-5.803 4.096 4.096 0 015.973 1.195l6.997 12.117 7.68-13.312a4.779 4.779 0 016.315-1.706 4.779 4.779 0 011.877 6.485l-8.192 13.995h12.63a4.608 4.608 0 010 9.216h-17.067l-11.435 19.626h23.382l10.069-17.066a4.95 4.95 0 016.485-1.366 4.608 4.608 0 012.219 5.974l-7.168 11.946h13.995a4.608 4.608 0 110 9.216zm153.6 0h-12.459l7.168 11.946a4.437 4.437 0 01-1.877 5.974 4.779 4.779 0 01-6.485-1.195l-10.24-17.067h-25.6l11.946 20.651h19.456a5.12 5.12 0 014.438 5.12 4.437 4.437 0 01-4.096 4.779h-13.995l6.997 12.117a4.608 4.608 0 01-1.706 6.315 4.779 4.779 0 01-6.486-1.707l-6.144-10.752-6.826 12.288a4.267 4.267 0 01-5.974 1.195 4.779 4.779 0 01-2.218-6.144l9.386-17.067-12.8-21.163-11.605 19.968 9.557 17.067a4.95 4.95 0 01-2.218 6.315 4.267 4.267 0 01-6.144-1.024l-6.656-12.288-7.168 12.117a4.608 4.608 0 01-8.022-4.608l6.315-10.923h-13.995a4.437 4.437 0 01-4.096-4.608 4.608 4.608 0 014.267-4.949h19.456l12.8-22.016H412.16l-9.557 17.067a4.608 4.608 0 01-8.022-4.608l6.998-12.118h-15.36a4.608 4.608 0 110-9.216h16.213l-6.315-10.922a4.608 4.608 0 012.39-6.144 4.779 4.779 0 015.632 1.365l9.045 15.701h22.528l-11.776-20.309h-19.285a4.437 4.437 0 01-4.096-4.608 4.267 4.267 0 014.096-4.608h13.994l-7.68-13.312a4.608 4.608 0 011.707-6.485 4.779 4.779 0 016.315 1.706l8.021 13.995 6.315-10.923a4.779 4.779 0 016.656 0 4.95 4.95 0 011.536 5.632l-9.046 15.531 11.264 18.432 11.947-20.821-9.557-17.067a4.267 4.267 0 012.048-5.803 4.096 4.096 0 015.973 1.195l6.997 12.117 7.68-13.312a4.779 4.779 0 016.315-1.706 4.779 4.779 0 011.877 6.485l-8.192 13.995h12.63a4.608 4.608 0 010 9.216h-17.067l-11.435 19.626h23.382l10.069-17.066a4.95 4.95 0 016.485-1.366 4.608 4.608 0 012.219 5.974l-7.168 11.946h13.995a4.608 4.608 0 110 9.216zm153.6 0h-12.459l7.168 11.946a4.437 4.437 0 01-1.877 5.974 4.779 4.779 0 01-6.485-1.195l-10.24-17.067h-25.6l11.946 20.651h19.456a5.12 5.12 0 014.438 5.12 4.437 4.437 0 01-4.096 4.779h-13.995l6.997 12.117a4.608 4.608 0 01-1.706 6.315 4.779 4.779 0 01-6.486-1.707l-6.144-10.752-6.826 12.288a4.267 4.267 0 01-5.974 1.195 4.779 4.779 0 01-2.218-6.144l9.386-17.067-12.8-21.163-11.605 19.968 9.557 17.067a4.95 4.95 0 01-2.218 6.315 4.267 4.267 0 01-6.144-1.024l-6.656-12.288-7.168 12.117a4.608 4.608 0 01-8.022-4.608l6.315-10.923h-13.995a4.437 4.437 0 01-4.096-4.608 4.608 4.608 0 014.267-4.949h19.456l12.8-22.016H565.76l-9.557 17.067a4.608 4.608 0 01-8.022-4.608l6.998-12.118h-15.36a4.608 4.608 0 110-9.216h16.213l-6.315-10.922a4.608 4.608 0 012.39-6.144 4.779 4.779 0 015.632 1.365l9.045 15.701h22.528l-11.776-20.309h-19.285a4.437 4.437 0 01-4.096-4.608 4.267 4.267 0 014.096-4.608h13.994l-7.68-13.312a4.608 4.608 0 011.707-6.485 4.779 4.779 0 016.315 1.706l8.021 13.995 6.315-10.923a4.779 4.779 0 016.656 0 4.95 4.95 0 011.536 5.632l-9.046 15.531 11.264 18.432 11.947-20.821-9.557-17.067a4.267 4.267 0 012.048-5.803 4.096 4.096 0 015.973 1.195l6.997 12.117 7.68-13.312a4.779 4.779 0 016.315-1.706 4.779 4.779 0 011.877 6.485l-8.192 13.995h12.63a4.608 4.608 0 010 9.216h-17.067l-11.435 19.626h23.382L640 799.403a4.95 4.95 0 016.485-1.366 4.608 4.608 0 012.219 5.974l-7.168 11.946h13.995a4.608 4.608 0 010 9.216zm268.97-455.51a145.92 145.92 0 00-34.133-105.984 194.048 194.048 0 00-146.432-65.024 185.173 185.173 0 00-96.768 27.136 281.77 281.77 0 00-202.752-85.333 264.704 264.704 0 00-258.73 201.045A187.733 187.733 0 000 526.507a187.733 187.733 0 00185.685 183.637h480.939a182.955 182.955 0 00181.248-181.077c0-81.408-73.216-136.534-144.213-140.971a210.603 210.603 0 00-36.182-135.51 153.6 153.6 0 0175.947-20.138 160.768 160.768 0 01121.344 53.419 117.077 117.077 0 0124.576 99.498l-4.267 23.552 23.382-4.608a49.152 49.152 0 0110.069-.853c29.867 0 72.875 23.21 72.875 65.195a94.379 94.379 0 01-92.843 93.184v32.768A127.147 127.147 0 001024 468.309c0-56.49-51.2-95.232-100.181-97.792zm-227.84 64.171c42.838 0 104.96 34.133 104.96 94.037A136.533 136.533 0 01665.6 663.04H186.368A140.288 140.288 0 0147.104 526.507a140.117 140.117 0 01142.507-136.534h12.629l22.357 2.048 3.072-22.186a216.405 216.405 0 01216.064-182.102 231.595 231.595 0 01174.934 76.971A168.96 168.96 0 01653.824 409.6l-6.144 34.133 34.133-6.656a82.432 82.432 0 0114.166-2.389z"/></svg>