<svg class="icon" viewBox="0 0 1146 1024" xmlns="http://www.w3.org/2000/svg" width="223.828" height="200"><defs><style/></defs><path d="M879.974 214.51a266.732 266.732 0 00-51.164 5.002 322.386 322.386 0 00-627.774 93.572 213.408 213.408 0 0018.76 426.361h24.9a34.109 34.109 0 0034.108-34.108 34.109 34.109 0 00-34.109-34.11h-24.9a145.247 145.247 0 01-11.937-289.925 67.422 67.422 0 0061.339-66.171 254.168 254.168 0 01494.579-73.903 68.218 68.218 0 0064.636 46.445 70.094 70.094 0 0013.246-1.25 194.25 194.25 0 1138.088 384.69 32.745 32.745 0 00-32.744 32.745v2.73a32.745 32.745 0 0032.744 32.744 262.468 262.468 0 100-524.88z"/><path d="M789.983 764.572a45.496 45.496 0 11-89.593-15.86c4.377-24.786 68.843-128.875 68.843-128.875s25.127 119.95 20.75 144.735zm-22.74 221.424a45.49 45.49 0 11-89.592-15.804c4.377-24.842 68.843-128.875 68.843-128.875s25.127 119.836 20.75 144.679zm-183.79-221.424a45.496 45.496 0 11-89.592-15.86c4.377-24.786 68.843-128.648 68.843-128.648s25.07 119.723 20.75 144.508zm-22.739 221.424a45.49 45.49 0 11-89.593-15.804c4.378-24.842 68.844-128.875 68.844-128.875s25.07 119.836 20.75 144.679zm-171.51-221.424a45.496 45.496 0 11-89.594-15.86c4.378-24.786 68.844-128.648 68.844-128.648s25.127 119.723 20.75 144.508zm-22.74 221.424a45.49 45.49 0 11-89.593-15.804c4.378-24.842 68.843-128.875 68.843-128.875s25.127 119.836 20.75 144.679z"/></svg>