<svg class="icon" viewBox="0 0 1024 1024" xmlns="http://www.w3.org/2000/svg" width="200" height="200"><defs><style/></defs><path d="M414.016 157.696a1.464 1.464 0 10187.392 0 1.464 1.464 0 10-187.392 0zm156.608 135.168h-121.92c-41.152 0-78.144 14.976-104.448 38.912V573.44h91.648l19.712 283.84H567.68l19.072-283.84h92.992V336.32c-26.496-26.56-65.472-43.456-109.12-43.456z"/><path d="M654.272 685.376v49.408c103.872 15.36 175.232 47.232 175.232 84.032 0 52.032-142.144 94.08-317.44 94.08s-317.504-42.048-317.504-94.08c0-36.928 71.872-68.864 176.448-84.288v-49.344C197.376 704 72.32 756.672 72.32 818.816 72.192 896.768 269.184 960 512 960s439.744-63.232 439.744-141.12c0-62.016-124.48-114.496-297.472-133.504z"/></svg>