<svg xmlns="http://www.w3.org/2000/svg" width="22.743" height="22.743"><path data-name="路径 105" d="M19.426 22.743H3.317A3.3 3.3 0 010 19.426V3.317A3.3 3.3 0 013.317 0h16.109a3.3 3.3 0 013.317 3.317v16.109a3.3 3.3 0 01-3.317 3.317zM3.317 1.9A1.4 1.4 0 001.9 3.317v16.109a1.4 1.4 0 001.421 1.421h16.105a1.4 1.4 0 001.421-1.421V3.317A1.4 1.4 0 0019.426 1.9H3.317z"/><path data-name="路径 106" d="M17.105 6.917h-.948a2.382 2.382 0 00-4.359 0H5.639a.9.9 0 00-.9.9v.047a.9.9 0 00.9.9h6.159a2.382 2.382 0 004.359 0h.948a.9.9 0 00.9-.9v-.047a.932.932 0 00-.9-.9zm0 7.107h-6.16a2.382 2.382 0 00-4.359 0h-.948a.9.9 0 00-.9.9v.047a.9.9 0 00.9.9h.948a2.382 2.382 0 004.359 0h6.16a.9.9 0 00.9-.9v-.042a.932.932 0 00-.9-.9z"/></svg>