<svg class="icon" viewBox="0 0 1024 1024" xmlns="http://www.w3.org/2000/svg" width="200" height="200"><defs><style/></defs><path d="M488 432H200a24 24 0 000 48h288a24 24 0 000-48zm0-176H200a24 24 0 000 48h288a24 24 0 000-48zm336 352H200a24 24 0 000 48h624a24 24 0 000-48zm0 176H200a24 24 0 000 48h624a24 24 0 000-48z"/><path d="M472 64H128a64 64 0 00-64 64v768a64 64 0 0064 64h768a64 64 0 0064-64V376a24 24 0 00-48 0v520a16 16 0 01-16 16H128a16 16 0 01-16-16V128a16 16 0 0116-16h344a24 24 0 000-48z"/><path d="M953.6 71.04a24 24 0 00-33.92 0L699.04 291.68 568.96 161.6a24 24 0 00-33.92 33.92l147.04 147.04a24 24 0 0033.92 0l237.6-237.6a24 24 0 000-33.92z"/></svg>