<svg class="icon" viewBox="0 0 1024 1024" xmlns="http://www.w3.org/2000/svg" width="200" height="200"><defs><style/></defs><path d="M1024 512c0 282.77-229.23 512-512 512S0 794.77 0 512 229.23 0 512 0s512 229.23 512 512zM281.42 754.798h470.507v-40.82H327.074V339.075h416.259V297.18H281.42v457.618zm225.855-230.689c-50.67 51.025-104.112 95.697-160.328 134.009 14.321 12.177 25.781 23.813 34.375 34.912 53.531-39.923 106.167-86.114 157.909-138.574 45.83 44.224 90.41 88.983 133.74 134.277l37.061-37.598c-47.803-46.368-93.994-89.874-138.574-130.518 38.672-41.534 76.807-86.651 114.404-135.352l-39.209-26.318c-34.375 47.626-70.273 91.669-107.689 132.129-48.876-44.043-95.699-84.503-140.454-121.387l-30.078 28.467c47.622 41.539 93.901 83.522 138.843 125.953z"/></svg>