<svg class="icon" viewBox="0 0 1024 1024" xmlns="http://www.w3.org/2000/svg" width="200" height="200"><defs><style/></defs><path d="M816.886 606.011c14.463-29.216 21.984-61.035 21.984-94.011 0-117.442-95.458-212.9-212.9-212.9-70.002 0-135.086 34.712-174.716 91.408-2.603 0-5.207-.289-7.52-.289-116.575 0-216.082 76.077-247.901 185.13-8.678-1.735-17.935-2.893-25.745-2.893-92.276.29-167.195 75.21-167.195 167.485s74.92 167.196 167.195 167.196H717.09c92.276 0 167.196-74.92 167.196-167.196 0-54.67-26.613-103.557-67.4-133.93zM625.97 360.136c83.887 0 151.864 68.266 151.864 151.864 0 23.43-5.496 46.282-15.62 67.11-14.464-4.05-29.505-6.364-45.126-6.364-7.81 0-16.777 1.157-25.744 2.892-24.299-83.887-89.094-147.814-170.378-173.27 28.059-26.612 65.374-42.232 105.004-42.232zm91.118 486.255h-547c-58.722 0-106.45-47.729-106.45-106.45s47.728-106.45 106.45-106.45c4.338 0 10.991 1.158 18.223 2.604v28.059c0 16.777 13.595 30.373 30.373 30.373s30.373-13.596 30.373-30.373v-48.886c16.198-95.169 97.771-163.724 194.675-163.724S622.21 520.389 638.41 615.557v48.886c0 16.777 13.596 30.373 30.373 30.373s30.373-13.596 30.373-30.373v-28.059c7.231-1.446 13.885-2.603 18.224-2.603 58.72 0 106.45 47.729 106.45 106.45s-48.019 106.16-106.74 106.16zM625.97 238.355c16.777 0 30.373-13.596 30.373-30.373v-60.746c0-16.777-13.596-30.373-30.373-30.373s-30.373 13.596-30.373 30.373v60.746c0 16.777 13.595 30.373 30.373 30.373zm364.763 243.272H929.99c-16.778 0-30.373 13.596-30.373 30.373s13.595 30.373 30.373 30.373h60.745c16.778 0 30.373-13.596 30.373-30.373s-13.595-30.373-30.373-30.373zM840.894 327.45c7.811 0 15.621-2.893 21.407-8.968l43.1-42.81c11.86-11.86 11.86-31.242 0-43.102s-31.24-11.86-43.1 0l-43.101 43.1c-11.86 11.86-11.86 31.24 0 43.1a31.37 31.37 0 0021.695 8.679zm-451.253-8.968c6.074 6.075 13.595 8.968 21.405 8.968s15.62-2.893 21.406-8.968c11.86-11.86 11.86-31.24 0-43.1l-43.1-43.1c-11.86-11.86-31.241-11.86-43.101 0s-11.86 31.24 0 43.1l43.39 43.1z"/></svg>