<svg xmlns="http://www.w3.org/2000/svg" width="17.974" height="22.291"><path data-name="路径 101" d="M9.003 22.291a1.114 1.114 0 01-.691-.234l-4.524-3.488a9.694 9.694 0 01-3.7-7.633V4.129a1.114 1.114 0 01.713-1.047l7.8-3.009a1.114 1.114 0 01.791 0l7.8 3.009a1.114 1.114 0 01.724 1.047v6.808a9.705 9.705 0 01-3.711 7.633l-4.524 3.488a1.114 1.114 0 01-.678.233zm-6.686-17.4v6.05a7.421 7.421 0 002.841 5.861l3.844 2.964 3.833-2.964a7.432 7.432 0 002.853-5.861V4.886L9.002 2.312z"/><path data-name="路径 102" d="M9.003 11.126a13.928 13.928 0 01-5.493-1.114L.758 8.82a1.114 1.114 0 11.88-2.039l2.73 1.192a11.711 11.711 0 009.215 0l2.752-1.17a1.114 1.114 0 11.88 2.039l-2.752 1.181a13.918 13.918 0 01-5.46 1.1z"/></svg>