<svg class="icon" viewBox="0 0 1092 1024" xmlns="http://www.w3.org/2000/svg" width="213.281" height="200"><defs><style/></defs><path d="M928.299 716.8a17.067 17.067 0 00-23.318-6.25L768 789.631V631.467a17.067 17.067 0 00-34.133 0v158.165l-136.982-79.083a17.07 17.07 0 10-17.066 29.568L716.8 819.2l-136.981 79.083a17.07 17.07 0 0017.066 29.568l136.982-79.083v158.165a17.067 17.067 0 0034.133 0V848.768l136.981 79.083A17.067 17.067 0 00928.3 921.6a17.067 17.067 0 00-6.251-23.317L785.067 819.2l136.981-79.083a17.067 17.067 0 006.25-23.317zM444.8 844.8a17.067 17.067 0 00-23.317-6.25L358.4 874.964v-72.832a17.067 17.067 0 00-34.133 0v72.832l-63.083-36.416a17.07 17.07 0 10-17.067 29.568l63.083 36.416-63.083 36.416a17.067 17.067 0 008.534 31.851 16.896 16.896 0 008.533-2.283l63.083-36.416v72.832a17.067 17.067 0 0034.133 0V934.1l63.083 36.416a17.067 17.067 0 0023.317-6.25 17.067 17.067 0 00-6.25-23.318l-63.083-36.416 63.082-36.416A17.067 17.067 0 00444.8 844.8zm136.533-187.733a17.067 17.067 0 00-6.25-23.318L512 597.333l63.083-36.416a17.07 17.07 0 10-17.067-29.568l-63.083 36.416v-72.832a17.067 17.067 0 00-34.133 0v72.832l-63.083-36.416a17.07 17.07 0 10-17.066 29.568l63.082 36.416-63.082 36.416a17.067 17.067 0 008.533 31.851 16.896 16.896 0 008.533-2.283l63.083-36.416v72.832a17.067 17.067 0 0034.133 0v-72.832l63.083 36.416a17.067 17.067 0 0023.317-6.25z"/><path d="M853.333 273.067a240.128 240.128 0 00-35.733 2.666C801.792 121.067 670.763 0 512 0 342.613 0 204.8 137.813 204.8 307.2a313.75 313.75 0 001.877 34.133H204.8a204.8 204.8 0 000 409.6h102.4v-68.266H204.8a136.533 136.533 0 1135.477-268.395 34.133 34.133 0 0041.707-42.197 238.933 238.933 0 11468.95-64.875c0 3.179 0 6.55-.235 10.325a34.133 34.133 0 0045.525 33.6 170.667 170.667 0 01193.643 263.147v93.696a238.933 238.933 0 00-136.534-434.901z"/></svg>