<svg class="icon" viewBox="0 0 1024 1024" xmlns="http://www.w3.org/2000/svg" width="200" height="200"><defs><style/></defs><path d="M928.76 1024H95.24A95.24 95.24 0 010 928.76V95.24A95.24 95.24 0 0195.24 0h833.52A95.24 95.24 0 011024 95.24v833.52a95.24 95.24 0 01-95.24 95.24zM440.14 493.881l171.552-87.823a15.937 15.937 0 0116.81 1.412c71.745 53.805 136.29 5.235 136.29 5.235 77.467-56.089 41.23-137.585 41.23-137.585-40.64-91.313-129.977-69.91-139.87-67.202a16.682 16.682 0 00-1.63.54c-72.694 28.076-79.623 91.749-79.559 115.95a16.04 16.04 0 01-8.661 14.359l-166.959 85.975a16.13 16.13 0 01-17.76-1.95c-53.894-45.247-114-20.532-114-20.532-75.927 27.64-75.927 103.208-75.927 103.208 0 89.825 77.673 112.717 77.673 112.717 56.628 16.477 95.047-7.083 110.356-19.466a16.014 16.014 0 0117.233-1.886l169.242 84.55a16.117 16.117 0 018.855 14.668c-.86 76.21 56.114 104.106 56.114 104.106 99.282 50.61 155.397-37.162 155.397-37.162 52.74-85.128-19.313-146.811-27.384-153.317-.436-.347-.885-.68-1.283-.988-66.304-43.501-120.622-11.318-139.767 3.4a16.002 16.002 0 01-16.862 1.63l-170.923-84.897a15.989 15.989 0 01-8.88-14.654v-5.62a15.963 15.963 0 018.713-14.668z"/></svg>