<svg xmlns="http://www.w3.org/2000/svg" width="53.063" height="55.501"><defs><filter id="a" x="0" y="2.501" width="53.063" height="53" filterUnits="userSpaceOnUse"><feOffset dy="3"/><feGaussianBlur stdDeviation="1.5" result="blur"/><feFlood flood-color="#58ff00" flood-opacity=".769"/><feComposite operator="in" in2="blur"/><feComposite in="SourceGraphic"/></filter></defs><g data-name="组 466"><g data-name="组 446"><g data-name="组 445" transform="translate(.552)"><ellipse data-name="椭圆 108" cx="21.032" cy="21" rx="21.032" ry="21" transform="translate(4.948 5.001)"/><path data-name="交叉 20" d="M8.998 42.931a24.053 24.053 0 01-3.118-3.82l.851-.565a23.108 23.108 0 009.568 8.259l-.424.929a23.928 23.928 0 01-6.877-4.803zm30.537 1.6a23.144 23.144 0 002.708-2.317 22.911 22.911 0 004.065-5.482l.917.453a23.919 23.919 0 01-4.259 5.749 24.177 24.177 0 01-2.812 2.409zm7.441-9.164l.2-.447q.254-.6.473-1.209l.973.315q-.233.651-.5 1.292-.094.221-.192.44zm.2-18.313A23.01 23.01 0 0031.269 3.648l.229-1a23.981 23.981 0 0118.021 18.529l-1 .213a22.72 22.72 0 00-1.347-4.342zM2.725 19.967A23.911 23.911 0 018.998 9.035a24.133 24.133 0 013.219-2.7l.586.837a23.106 23.106 0 00-8.011 9.876 22.8 22.8 0 00-1.078 3.175z"/><path data-name="交叉 21" d="M15.847 49.958a26 26 0 01-3.532-1.821l.074-.1a25.915 25.915 0 0028.237-.687l.073.1a26.114 26.114 0 01-24.852 2.507zm-8.274-5.572a25.978 25.978 0 01-6.62-11.2l.121-.035A25.851 25.851 0 007.661 44.3a26.177 26.177 0 002.244 2l-.08.1a26.3 26.3 0 01-2.252-2.014zm39.809-3.8a25.777 25.777 0 004.35-11.744l.125.011a25.889 25.889 0 01-4.372 11.807zm2.467-24.656A25.79 25.79 0 0044.3 7.708l.088-.089A25.9 25.9 0 0152 25.232h-.125a25.645 25.645 0 00-2.026-9.302zM0 24.349A25.9 25.9 0 017.573 7.616 26.081 26.081 0 0136.1 2.04l-.049.116A25.936 25.936 0 002.11 15.93a25.607 25.607 0 00-1.985 8.427z"/></g><path data-name="减去 124" d="M26.531 48.001a21.986 21.986 0 1120.3-30.563 22.006 22.006 0 01-20.3 30.563zm0-42.045a20.031 20.031 0 1018.496 27.845 20.05 20.05 0 00-18.5-27.846z"/></g><g data-name="组 448"><g data-name="组 447" transform="translate(.552)"><ellipse data-name="椭圆 108" cx="21.032" cy="21" rx="21.032" ry="21" transform="translate(4.948 5.001)"/><path data-name="交叉 20" d="M47.172 17.37a23.4 23.4 0 00-4.928-7.456 22.89 22.89 0 00-7.31-5.027 22.513 22.513 0 00-3.665-1.222l.228-1.017a23.491 23.491 0 013.834 1.278 23.916 23.916 0 017.635 5.251 24.628 24.628 0 016.553 12.411l-1 .218a23.6 23.6 0 00-1.347-4.436zM2.725 20.348a24.748 24.748 0 011.125-3.387 24.513 24.513 0 018.366-10.543l.586.855a23.475 23.475 0 00-8.011 10.1 23.664 23.664 0 00-1.077 3.239z"/><path data-name="交叉 21" d="M49.849 16.236a26.32 26.32 0 00-5.549-8.38l.088-.091A26.644 26.644 0 0152 25.717h-.125a26.565 26.565 0 00-2.026-9.481zM0 24.817A26.638 26.638 0 017.573 7.763a25.913 25.913 0 018.274-5.68 25.69 25.69 0 0120.257 0l-.049.118A25.565 25.565 0 0015.9 2.2a25.8 25.8 0 00-8.239 5.653A26.516 26.516 0 00.125 24.825z"/><path data-name="火 (1)" d="M20.799 37.373c1.2.4 1.6-.7 1.1-1.1a4.373 4.373 0 01-1.8-4.9c.6-2 2.2-2.8 2.2-5.8a4.224 4.224 0 011.6 3.8c2-2.3 1.1-5.3.7-6.7 5.1 2.7 9.507 8.606 4.4 13.609-.6.5 0 1.4.9 1.1 13.91-7.905 3.4-19.714 1.6-21.115.6 1.4.7 3.6-.5 4.7-2.1-7.905-7.2-9.507-7.2-9.507.6 4.1-2.3 8.506-5 11.908a9.077 9.077 0 00-1-4.3c-.2 2.9-2.5 5.3-3.1 8.306-.8 4 .6 6.9 6.1 10.007z" opacity=".92" style="mix-blend-mode:color-dodge;isolation:isolate"/></g><g transform="translate(.002)" filter="url(#a)"><path data-name="减去 127" d="M26.532 48a21.986 21.986 0 1120.3-30.563A22.006 22.006 0 0126.532 48zm0-42.045A20.031 20.031 0 1045.028 33.8a20.05 20.05 0 00-18.5-27.846z"/></g></g></g></svg>