<svg xmlns="http://www.w3.org/2000/svg" width="18.853" height="22.524"><path d="M9.643 22.524h-.27a9.279 9.279 0 01-6.557-2.7A9.446 9.446 0 010 13.265a7.192 7.192 0 01.745-3.127 5.159 5.159 0 012.232-2.379c0 .035.528 3.533 2.232 5a14.893 14.893 0 00.006-1.718v-.026c-.1-3.273-.265-8.751 5.455-11.018 0 4.213 0 7.255 2.233 9.76a4.921 4.921 0 013.719-5.007 10.909 10.909 0 001.236 4.9 8.436 8.436 0 011 3.612v.181a9.271 9.271 0 01-2.774 6.437 9.121 9.121 0 01-6.441 2.644zM9.177 12.26c0 1-.86 1.932-1.771 2.916a6.149 6.149 0 00-1.947 3.094 4.239 4.239 0 004.215 4.252 4.242 4.242 0 004.218-4.255 3.1 3.1 0 00-1.239-2.5 4.967 4.967 0 01-.993 2.252c0-.13.013-.31.027-.5.1-1.352.3-4.165-2.51-5.255z"/></svg>