<svg xmlns="http://www.w3.org/2000/svg" width="16" height="16" viewBox="0 0 16 16">
  <g id="flow" transform="translate(-1613 -93.155)">
    <rect id="矩形_646" data-name="矩形 646" width="16" height="16" transform="translate(1613 93.155)" fill="none"/>
    <path id="热力图" d="M10.855,14c-1.833-.946-4.842-.323-6.675-.567S1.164,11.5.541,9.753c-1.594-4.464,1.077-5.676,3.25-5.578S5.057,2.046,8.1.38,11.972,3,11.634,3.971s-.573,1.9,1.726,4.34S12.688,14.951,10.855,14Zm1.511-5.629c-2.013-2.039-2.044-2.905-1.7-3.822.3-.794.131-4.37-2.471-2.989S6.377,5.175,4.533,5.118.161,6.08,1.469,9.684A4.02,4.02,0,0,0,4.731,12.4c1.554.178,4.085-.261,5.631.486S14.294,10.327,12.366,8.374Zm-3.332,2.57a2.024,2.024,0,0,1-.881-2.557c.285-1-.584-2.37-.988-3.142S7.7,2.73,8.7,2.463c1.622-.434.805,2.118.873,3.822s2.5,2.813,2.474,3.855S9.987,11.3,9.034,10.944ZM6.574,9.57a2.987,2.987,0,0,1-2.984.795C2.513,10,1.8,8.232,2.632,7.484c1.706-1.525,1.885.072,3.277-.606S7.41,8.812,6.574,9.57Z" transform="translate(1613.943 94.155)" fill="#d9d9d9"/>
  </g>
</svg>
