<svg class="icon" viewBox="0 0 1024 1024" xmlns="http://www.w3.org/2000/svg" width="200" height="200"><defs><style/></defs><path d="M219.477 364.373a36.352 36.352 0 0053.931 31.744 36.523 36.523 0 000-63.317 35.84 35.84 0 00-36.523 0 36.693 36.693 0 00-17.408 31.573zm256 0a36.523 36.523 0 1053.931-31.573 35.84 35.84 0 00-36.523 0 36.523 36.523 0 00-17.578 31.573zm256 0a36.523 36.523 0 1053.931-31.573 36.523 36.523 0 00-54.784 31.573zM73.216 510.805a36.523 36.523 0 0018.261 31.574 36.523 36.523 0 0054.784-31.574A36.693 36.693 0 00128 479.061a35.84 35.84 0 00-36.523 0 36.352 36.352 0 00-18.261 31.744zm267.947 0a36.523 36.523 0 0017.578 31.574 36.523 36.523 0 0054.784-31.574 36.693 36.693 0 00-18.261-31.744 35.84 35.84 0 00-36.523 0 36.693 36.693 0 00-17.066 31.744zm268.117 0a36.523 36.523 0 0018.261 31.574 36.523 36.523 0 0055.467-31.574 36.693 36.693 0 00-18.261-31.744 35.84 35.84 0 00-36.523 0 36.693 36.693 0 00-18.944 31.744zm268.117 0a36.523 36.523 0 0018.262 31.574 35.84 35.84 0 0036.522 0 36.523 36.523 0 000-63.318 35.84 35.84 0 00-36.522 0 36.693 36.693 0 00-18.262 31.744zM73.216 218.112A36.523 36.523 0 10128 186.539a36.523 36.523 0 00-54.784 31.573zm267.947 0a36.523 36.523 0 1054.784-31.573 35.84 35.84 0 00-36.523 0 36.523 36.523 0 00-17.75 31.573zm268.117 0a36.523 36.523 0 1054.784-31.573 35.84 35.84 0 00-36.523 0 36.523 36.523 0 00-18.261 31.573zm268.117 0a36.523 36.523 0 1054.784-31.573 35.84 35.84 0 00-36.522 0 36.523 36.523 0 00-18.262 31.573zM36.523 656.896h950.613a36.523 36.523 0 010 73.045H36.523a36.523 36.523 0 010-73.045zm0 146.261h950.613a36.523 36.523 0 110 73.046H36.523a36.523 36.523 0 110-73.046z"/></svg>