<svg class="icon" viewBox="0 0 1024 1024" xmlns="http://www.w3.org/2000/svg" width="200" height="200"><defs><style/></defs><path d="M512 0a512 512 0 10512 512A512 512 0 00512 0zm0 981.333A469.333 469.333 0 11981.333 512 469.333 469.333 0 01512 981.333z"/><path d="M528.853 234.667A149.333 149.333 0 00362.667 384h42.666a106.667 106.667 0 11159.36 92.8 149.333 149.333 0 00-74.026 129.493V640h42.666v-33.707a106.667 106.667 0 0152.48-92.373 149.333 149.333 0 00-56.96-279.253zm-59.52 512a42.667 42.667 0 1085.334 0 42.667 42.667 0 10-85.334 0z"/></svg>