<svg class="icon" viewBox="0 0 1024 1024" xmlns="http://www.w3.org/2000/svg" width="200" height="200"><defs><style/></defs><path d="M0 0h1024v1024H0z" fill-opacity="0"/><path d="M510.045 0C228.352 0 0 228.352 0 510.045c0 281.67 228.352 509.999 510.045 509.999 281.67 0 510.022-228.352 510.022-510.022C1020.067 228.352 791.738 0 510.045 0zm0 792.972a56.576 56.576 0 110-113.176 56.576 56.576 0 010 113.176zm28.276-229.4c0 31.349-12.986 56.576-28.276 56.576s-28.3-25.227-28.3-56.576l-28.3-251.578a56.576 56.576 0 01113.176 0l-28.3 251.578z"/></svg>