<svg class="icon" viewBox="0 0 1024 1024" xmlns="http://www.w3.org/2000/svg" width="32" height="32"><defs><style/></defs><path d="M440.8 767.6l122.6 101.2-122.6 91.4 11.1-73.6s-349.9-6.5-376.7-137c-13.4-99.3 156-121.1 156-121.1v35.9S122.5 692.5 118.7 745c-4 53.9 201.7 110.4 339.9 97l-17.8-74.4zM612.4 842v44.6s300.9.2 334.3-137c24.5-85.3-127-121.3-127-121.3v56.5s86.9 34.8 86.9 64.8c.1 30-156 94.7-294.2 92.4zm-64-778.2c-144.2 0-261.2 116.9-261.2 261.2 0 30.8 5.6 60.3 15.4 87.7 1.4 4.4 3 8.9 4.9 13.5.2.5.5 1 .7 1.5 1.6 3.8 3.2 7.6 5.2 11.6 96 191.2 235 373.7 235 373.7s139-182.5 235-373.7c2-4 3.5-7.8 5.2-11.6.2-.5.5-1 .7-1.5 1.9-4.6 3.5-9 4.9-13.4 9.8-27.5 15.4-56.9 15.4-87.8 0-144.2-116.9-261.2-261.2-261.2zm0 425.3c-90.6 0-164.1-73.5-164.1-164.1s73.5-164.1 164.1-164.1S712.5 234.4 712.5 325 639 489.1 548.4 489.1z"/></svg>