<svg class="icon" viewBox="0 0 1024 1024" xmlns="http://www.w3.org/2000/svg" width="32" height="32"><defs><style/></defs><path d="M492.666 504.116l342.783-342.811c34.513-34.485 90.436-34.485 124.947 0l31.211 31.21c34.459 34.485 34.459 90.436 0 124.894L648.77 660.247l-250.283 90.107m75.794-72.797l150.269-55.95 8.421-8.423-93.683-93.683-8.532 8.503-56.475 149.553zm96.218-189.267l93.683 93.684 233.522-233.55-93.684-93.657-233.521 233.521zm390.064-265.144l-31.211-31.237c-17.23-17.2-45.246-17.228-62.475 0l-31.652 31.651 93.684 93.629 31.651-31.594c17.228-17.228 17.228-45.246 0-62.447zM531.526 83.776v162.048c0 24.384 19.817 44.172 44.201 44.172h68.419l-44.145 44.117h-24.274c-48.825 0-88.347-39.521-88.347-88.289V47.09H89.939c-24.384 0-44.145 19.788-44.145 44.172V930.26c0 24.384 19.761 44.172 44.145 44.172h618.275c24.357 0 44.118-19.788 44.118-44.172V618.963l41.667-44.146v355.442c0 48.769-37.045 88.347-85.787 88.347H89.937c-48.769 0-83.39-39.577-83.39-88.347V91.261c0-48.796 34.622-85.868 83.39-85.868h427.55L716.69 217.448l-30.879 30.879L531.524 83.773zM103.428 845.051h594.066v51.982H103.428v-51.982zm0-213.114h297.033v51.658H103.428v-51.658zm0-197.381h297.033v51.63H103.428v-51.63zm0-204.262h297.033v51.658H103.428v-51.658z"/></svg>