<svg class="icon" viewBox="0 0 1024 1024" xmlns="http://www.w3.org/2000/svg" width="200" height="200"><defs><style/></defs><path d="M210.65 754.25a210.09 210.09 0 0136.51-391.95C271.7 238.49 380.96 145.1 512 145.1c131.07 0 240.3 93.39 264.84 217.23a210.09 210.09 0 0136.6 391.86l-.06.03a30 30 0 01-25.74-54.21A150 150 0 00722 415.1a210 210 0 00-420 0 150 150 0 00-64.38 285.54 30 30 0 11-27 53.61zm141.66-26.52a30 30 0 0114.49 39.9l-25.35 54.36a30 30 0 11-54.39-25.35l25.38-54.39a30 30 0 0139.87-14.52zm367.5 0a30 30 0 0114.52 39.9l-25.35 54.36a30 30 0 01-54.39-25.38l25.35-54.36a30 30 0 0139.9-14.52zm-221.46-17.49h70.56a30 30 0 0130.96 42.45l-50.7 108.75a30 30 0 11-54.42-25.35l30.72-65.85h-74.16a30 30 0 01-26.85-43.5l50.7-108.75a30 30 0 1154.39 25.35l-31.2 66.9z"/></svg>