<svg class="icon" viewBox="0 0 1024 1024" xmlns="http://www.w3.org/2000/svg" width="200" height="200"><defs><style/></defs><path d="M697.856 322.56A185.856 185.856 0 10386.048 460.8a279.552 279.552 0 00-191.488 256 35.328 35.328 0 1071.168 0c0-110.592 102.4-200.192 235.52-204.8h25.6a229.888 229.888 0 01124.416 34.816l8.192 5.632a198.656 198.656 0 0199.328 165.376 35.328 35.328 0 0071.168 0A269.312 269.312 0 00695.808 486.4h-2.56a227.328 227.328 0 00-51.2-27.648 184.832 184.832 0 0055.808-136.192zM512 226.304a96.256 96.256 0 11-96.256 96.256A96.256 96.256 0 01512 226.304z"/><path d="M884.224 16.384H824.32a38.4 38.4 0 000 76.8h59.904a64 64 0 0164 63.488v581.12a64 64 0 01-64 63.488H139.776a64 64 0 01-64-63.488v-581.12a64 64 0 0164-63.488h488.448a38.4 38.4 0 000-76.8H139.776A140.8 140.8 0 000 156.672v581.12A140.8 140.8 0 00140.8 878.08h332.8v51.2H303.616a38.4 38.4 0 000 76.8h417.792a38.4 38.4 0 100-76.8H550.4v-51.2h333.824A140.8 140.8 0 001024 737.792v-581.12A140.8 140.8 0 00884.224 16.384z"/></svg>