<svg class="icon" viewBox="0 0 1024 1024" xmlns="http://www.w3.org/2000/svg" width="200" height="200"><defs><style/></defs><path d="M509.63 146.3c-209.541 0-380.018 170.287-380.018 379.543S300.089 905.387 509.63 905.387c209.54 0 380.017-170.288 380.017-379.544 0-209.256-170.477-379.544-380.017-379.544zm0 721.256c-188.397 0-341.713-153.221-341.713-341.713 0-188.397 153.316-341.713 341.713-341.713 188.397 0 341.712 153.316 341.712 341.713-.095 188.397-153.315 341.713-341.712 341.713z"/><path d="M729.22 518.637L570.69 360.012c-3.887-3.888-12.326-1.896-18.773 4.456-6.447 6.448-8.438 14.791-4.456 18.773l125.06 125.061H305.4c-9.672 0-17.541 7.87-17.541 17.541s7.87 17.54 17.54 17.54h367.123l-125.06 125.061c-3.888 3.888-1.897 12.326 4.456 18.774 6.447 6.447 14.791 8.438 18.773 4.456L729.316 533.05c1.232-1.233 1.896-2.845 1.99-4.74a44.425 44.425 0 000-5.026c-.189-1.802-.853-3.413-2.085-4.646z"/></svg>