<svg class="icon" viewBox="0 0 1024 1024" xmlns="http://www.w3.org/2000/svg" width="200" height="200"><defs><style/></defs><path d="M535.467 533.333c68.266-68.266 177.066-74.666 251.733-19.2l145.067-160c12.8-14.933 12.8-38.4-2.134-51.2l-211.2-192c-14.933-12.8-38.4-12.8-51.2 2.134L130.133 704c-12.8 14.933-12.8 38.4 2.134 51.2l211.2 192c14.933 12.8 38.4 12.8 51.2-2.133L526.933 800c-68.266-76.8-66.133-194.133 8.534-266.667zM640 172.8c4.267-6.4 12.8-6.4 19.2 0l49.067 44.8c6.4 4.267 6.4 12.8 0 19.2-4.267 6.4-12.8 6.4-19.2 0L640 192c-4.267-4.267-4.267-12.8 0-19.2zm-89.6 100.267c4.267-6.4 12.8-6.4 19.2 0l49.067 44.8c6.4 4.266 6.4 12.8 0 19.2-4.267 6.4-12.8 6.4-19.2 0l-49.067-44.8c-6.4-4.267-6.4-12.8 0-19.2zM256 733.867c-4.267 6.4-12.8 6.4-19.2 0l-49.067-44.8c-6.4-4.267-6.4-12.8 0-19.2 4.267-6.4 12.8-6.4 19.2 0l49.067 44.8c4.267 6.4 4.267 14.933 0 19.2zm89.6-98.134c-4.267 6.4-12.8 6.4-19.2 0l-49.067-44.8c-6.4-4.266-6.4-12.8 0-19.2 4.267-6.4 12.8-6.4 19.2 0l49.067 44.8c4.267 4.267 6.4 12.8 0 19.2zm91.733-100.266c-4.266 6.4-12.8 6.4-19.2 0l-49.066-44.8c-6.4-4.267-6.4-12.8 0-19.2 4.266-6.4 12.8-6.4 19.2 0l49.066 44.8c4.267 4.266 4.267 12.8 0 19.2zm21.334-162.134c4.266-6.4 12.8-6.4 19.2 0l49.066 44.8c6.4 4.267 6.4 12.8 0 19.2-4.266 6.4-12.8 6.4-19.2 0l-49.066-44.8c-4.267-6.4-4.267-14.933 0-19.2z"/><path d="M878.933 849.067l-89.6-89.6c46.934-61.867 42.667-147.2-12.8-202.667-6.4-6.4-10.666-10.667-17.066-14.933-59.734-44.8-145.067-38.4-198.4 14.933-57.6 57.6-59.734 149.333-6.4 211.2l6.4 6.4c55.466 55.467 140.8 59.733 202.666 12.8l89.6 89.6c4.267 4.267 8.534 6.4 12.8 6.4 4.267 0 10.667-2.133 12.8-6.4 6.4-8.533 6.4-21.333 0-27.733zM748.8 746.667c-44.8 44.8-117.333 44.8-162.133 0-2.134-2.134-4.267-4.267-6.4-8.534-17.067-21.333-25.6-46.933-27.734-72.533 0-64 51.2-115.2 115.2-115.2 23.467 0 44.8 6.4 64 19.2 6.4 4.267 10.667 8.533 17.067 12.8 44.8 46.933 44.8 119.467 0 164.267z"/></svg>