<svg class="icon" viewBox="0 0 1024 1024" xmlns="http://www.w3.org/2000/svg" width="200" height="200"><defs><style/></defs><path d="M392.192 77.824H139.264c-33.792 0-61.44 27.648-61.44 61.44v251.904c0 33.792 27.648 61.44 61.44 61.44h252.928c33.792 0 61.44-27.648 61.44-61.44V139.264c0-33.792-27.648-61.44-61.44-61.44zm20.48 313.344c0 11.264-9.216 20.48-20.48 20.48H139.264c-11.264 0-20.48-9.216-20.48-20.48V139.264c0-11.264 9.216-20.48 20.48-20.48h252.928c11.264 0 20.48 9.216 20.48 20.48v251.904zm429.056 60.416c16.384 0 32.768-7.168 44.032-18.432 11.264-12.288 17.408-27.648 16.384-43.008V138.24c0-33.792-27.648-61.44-61.44-61.44H587.776c-33.792 0-61.44 27.648-61.44 61.44v251.904c0 33.792 27.648 61.44 61.44 61.44h253.952zm-274.432-61.44V138.24c0-11.264 9.216-20.48 20.48-20.48h252.928c11.264 0 20.48 9.216 20.48 20.48v252.928c0 5.12-2.048 10.24-5.12 13.312-4.096 4.096-9.216 6.144-14.336 6.144H587.776c-11.264 0-20.48-9.216-20.48-20.48zM392.192 572.416H139.264c-33.792 0-61.44 27.648-61.44 61.44V885.76c0 33.792 27.648 61.44 61.44 61.44h252.928c33.792 0 61.44-27.648 61.44-61.44V633.856c0-33.792-27.648-61.44-61.44-61.44zm20.48 313.344c0 11.264-9.216 20.48-20.48 20.48H139.264c-11.264 0-20.48-9.216-20.48-20.48V633.856c0-11.264 9.216-20.48 20.48-20.48h252.928c11.264 0 20.48 9.216 20.48 20.48V885.76zm524.288-17.408l-48.128-31.744c18.432-28.672 29.696-62.464 29.696-99.328 0-100.352-80.896-181.248-181.248-181.248S556.032 636.928 556.032 737.28s80.896 181.248 181.248 181.248c48.128 0 92.16-19.456 124.928-50.176l52.224 34.816c3.072 2.048 7.168 3.072 11.264 3.072 6.144 0 13.312-3.072 17.408-9.216 6.144-9.216 3.072-22.528-6.144-28.672zm-199.68 9.216c-77.824 0-140.288-62.464-140.288-140.288s62.464-140.288 140.288-140.288 140.288 62.464 140.288 140.288c0 33.792-12.288 65.536-32.768 89.088l-2.048 2.048c-24.576 29.696-63.488 49.152-105.472 49.152z"/></svg>