<svg class="icon" viewBox="0 0 1024 1024" xmlns="http://www.w3.org/2000/svg" width="200" height="200"><defs><style/></defs><path d="M243.746 154.47h-44.638a33.482 33.482 0 00-33.57 33.57v44.76a33.481 33.481 0 0033.57 33.569h44.76a33.482 33.482 0 0033.57-33.57v-44.76c-.122-18.609-15.083-33.57-33.692-33.57zm11.19 78.208c0 6.203-4.865 11.19-11.19 11.19h-44.638c-6.203 0-11.19-4.866-11.19-11.19v-44.76c0-6.203 4.865-11.19 11.19-11.19h44.76c6.203 0 11.19 4.865 11.19 11.19v44.76zm569.956-78.208h-44.638a33.482 33.482 0 00-33.57 33.57v44.76a33.481 33.481 0 0033.57 33.569h44.638c18.61 0 33.57-14.96 33.57-33.57v-44.76a33.482 33.482 0 00-33.57-33.57zm11.19 78.208c0 6.203-4.865 11.19-11.19 11.19h-44.638c-6.203 0-11.19-4.866-11.19-11.19v-44.76c0-6.203 4.865-11.19 11.19-11.19h44.638c6.203 0 11.19 4.865 11.19 11.19v44.76zM243.746 757.874h-44.638a33.482 33.482 0 00-33.57 33.57v44.76c0 18.61 14.96 33.57 33.57 33.57h44.76a33.482 33.482 0 0033.57-33.57v-44.76c-.122-18.61-15.083-33.57-33.692-33.57zm11.19 78.208c0 6.203-4.865 11.19-11.19 11.19h-44.638c-6.203 0-11.19-4.865-11.19-11.19v-44.76c0-6.203 4.865-11.19 11.19-11.19h44.76c6.203 0 11.19 4.866 11.19 11.19v44.76zm569.956-78.208h-44.638a33.482 33.482 0 00-33.57 33.57v44.76c0 18.61 14.96 33.57 33.57 33.57h44.638c18.61 0 33.57-14.96 33.57-33.57v-44.76c0-18.61-14.96-33.57-33.57-33.57zm11.19 78.208c0 6.203-4.865 11.19-11.19 11.19h-44.638c-6.203 0-11.19-4.865-11.19-11.19v-44.76c0-6.203 4.865-11.19 11.19-11.19h44.638c6.203 0 11.19 4.866 11.19 11.19v44.76z"/><path d="M823.798 243.867h-23.232c1.338 3.528 2.068 7.177 2.068 11.19v514.007c0 4.014-.73 7.541-2.068 11.19h23.232c.73-3.527 1.094-7.42 1.094-11.19V254.936c0-3.77-.486-7.541-1.094-11.069zM254.936 802.512v22.38h514.128v-22.38H254.936zm0-603.404v22.38h514.128v-22.38H254.936zm-33.448 55.828c0-4.014.73-7.541 2.067-11.19h-23.353c-.73 3.527-1.094 7.42-1.094 11.19v514.007c0 3.77.486 7.54 1.094 11.19h23.232c-1.338-3.528-2.068-7.177-2.068-11.19V254.936z"/><path d="M769.064 835.352H254.936c-5.838 0-10.46-4.743-10.46-10.46v-22.38c0-5.838 4.743-10.46 10.46-10.46h514.128c5.838 0 10.46 4.744 10.46 10.46v22.38c0 5.838-4.743 10.46-10.46 10.46zm-503.546-20.92h493.086v-1.338H265.518v1.338zm558.28-23.718h-23.232c-3.405 0-6.69-1.702-8.635-4.5-1.946-2.797-2.433-6.446-1.217-9.609.973-2.554 1.338-4.865 1.338-7.54v-514.13c0-2.675-.365-4.986-1.338-7.54-1.216-3.163-.73-6.812 1.217-9.609a10.444 10.444 0 018.635-4.5h23.232c4.986 0 9.365 3.527 10.338 8.514.852 4.257 1.338 8.635 1.338 13.136v514.007c0 4.5-.486 8.879-1.338 13.136-.973 4.986-5.352 8.635-10.338 8.635zm-10.704-21.042h1.338V254.206h-1.338v515.466zm-589.66 21.042h-23.232c-4.986 0-9.365-3.527-10.338-8.514-.852-4.257-1.338-8.635-1.338-13.136V254.936c0-4.5.486-8.88 1.338-13.136.973-4.987 5.23-8.514 10.338-8.514h23.232c3.405 0 6.69 1.702 8.635 4.5 1.946 2.797 2.433 6.446 1.217 9.609-.973 2.554-1.338 4.865-1.338 7.54v514.008c0 2.675.365 4.986 1.338 7.54 1.216 3.163.73 6.812-1.217 9.61-1.946 2.919-5.108 4.621-8.635 4.621zm-13.866-21.042h1.338V254.206h-1.338v515.466zm559.496-537.724H254.936c-5.838 0-10.46-4.744-10.46-10.46v-22.38c0-5.838 4.743-10.46 10.46-10.46h514.128c5.838 0 10.46 4.743 10.46 10.46v22.38c0 5.716-4.743 10.46-10.46 10.46zm-503.546-21.042h493.086v-1.338H265.518v1.338z"/><path d="M210.298 477.761c-2.676 0-5.352-.973-7.42-3.04-4.135-4.136-4.135-10.704 0-14.84l257.004-257.003c4.135-4.135 10.703-4.135 14.839 0 4.135 4.136 4.135 10.704 0 14.84L217.717 474.72c-2.068 2.067-4.743 3.04-7.42 3.04zm357.59 335.333c-2.675 0-5.35-.973-7.419-3.04-4.135-4.136-4.135-10.704 0-14.84l234.624-234.623c4.135-4.135 10.703-4.135 14.839 0 4.135 4.135 4.135 10.703 0 14.839L575.308 809.932c-2.067 2.068-4.743 3.162-7.42 3.162zm-357.59-184.39c-2.676 0-5.474-1.095-7.42-3.163-4.135-4.135-4.014-10.825.122-14.839l413.42-407.824c4.134-4.135 10.702-4.014 14.838.122 4.135 4.135 4.014 10.825-.122 14.839L217.717 625.663c-2.068 1.946-4.743 3.04-7.42 3.04zm167.605 195.458c-2.676 0-5.351-.973-7.42-3.04-4.135-4.014-4.135-10.704-.12-14.84l433-438.596c4.015-4.135 10.704-4.135 14.84-.121 4.135 4.014 4.135 10.703.121 14.839L385.323 821c-1.946 2.19-4.744 3.162-7.42 3.162zm-134.157-44.638c-2.676 0-5.352-.973-7.42-3.04-4.135-4.136-4.135-10.704 0-14.84l514.007-514.006c4.136-4.135 10.704-4.135 14.84 0s4.135 10.703 0 14.839L251.164 776.484c-1.946 2.067-4.622 3.04-7.42 3.04z"/></svg>