<svg xmlns="http://www.w3.org/2000/svg" width="16" height="16" viewBox="0 0 16 16">
  <g id="online" transform="translate(-1622.517 -104.792)">
    <rect id="矩形_645" data-name="矩形 645" width="16" height="16" transform="translate(1622.517 104.792)" fill="none"/>
    <path id="图层管理" d="M13.485,72.191,7.359,75.134H7.353a.546.546,0,0,1-.484,0H6.863L.738,72.191a.745.745,0,0,1-.392-.68.691.691,0,0,1,.634-.736.56.56,0,0,1,.242.056h0l0,0,5.883,2.826,5.882-2.826,0,0h0a.559.559,0,0,1,.242-.056.691.691,0,0,1,.635.736.745.745,0,0,1-.392.68Zm0-3.191L7.359,71.943h0l0,0h0a.546.546,0,0,1-.484,0h0l0,0h0L.738,69a.786.786,0,0,1,0-1.36h0L6.862,64.7h0l0,0a.566.566,0,0,1,.243-.056.56.56,0,0,1,.242.056l0,0h0l6.125,2.942h0a.786.786,0,0,1,0,1.36ZM.98,73.965a.56.56,0,0,1,.242.056h0l0,0L7.111,76.85l5.882-2.826,0,0h0a.56.56,0,0,1,.242-.056.691.691,0,0,1,.635.735.746.746,0,0,1-.392.681L7.359,78.324l0,0h0a.554.554,0,0,1-.484,0h0l0,0L.738,75.382A.746.746,0,0,1,.346,74.7.691.691,0,0,1,.98,73.965Zm0,0" transform="translate(1623.171 41.153)" fill="#d9d9d9"/>
  </g>
</svg>
