<svg xmlns="http://www.w3.org/2000/svg" width="19" height="19"><defs><clipPath id="a"><path data-name="矩形 741" transform="translate(6099 2368)" stroke="#707070" d="M0 0h19v19H0z"/></clipPath><clipPath id="b"><path data-name="矩形 740" transform="translate(6095.737 2367.786)" d="M0 0h10v20H0z"/></clipPath></defs><g transform="translate(-6099 -2368)" clip-path="url(#a)"><g data-name="组 439"><g data-name="组 437"><path data-name="路径 133" d="M6099 2377.5a9.5 9.5 0 109.5-9.5 9.5 9.5 0 00-9.5 9.5z"/><path data-name="路径 134" d="M6113.566 2371.012a.731.731 0 00-.221.037 1.229 1.229 0 00-2.021 0 .731.731 0 00-.221-.037.739.739 0 00-.739.739h3.942a.739.739 0 00-.74-.739z"/><path data-name="路径 135" d="M6103.793 2379.378a6.5 6.5 0 106.5-6.5 6.5 6.5 0 00-6.5 6.5z"/><path data-name="路径 136" d="M6106.194 2379.378a4.1 4.1 0 104.1-4.1 4.1 4.1 0 00-4.1 4.1z"/><path data-name="路径 137" d="M6108.416 2379.378a1.878 1.878 0 101.878-1.878 1.878 1.878 0 00-1.878 1.878z"/><path data-name="路径 138" d="M6099.022 2376.884c-.013.2-.022.409-.022.616a9.462 9.462 0 00.827 3.875 46.2 46.2 0 006.834.167 28.878 28.878 0 003.984-.709c.421-.191.187-1.494.187-1.494-3.635 0-5.432-3.554-11.81-2.455z"/><path data-name="路径 139" d="M6110.832 2379.338c-3.635 0-5.432-3.554-11.81-2.455v.1c5.634-.993 7.3 2.777 10.608 2.777a4.675 4.675 0 01.015 1.317 6.455 6.455 0 001-.247c.421-.189.187-1.492.187-1.492z"/><path data-name="路径 140" d="M6117.978 2378.113c-6.157.006-8.49 2.451-13.462 2.451v2.069l8.495 3.229a9.5 9.5 0 004.967-7.749z"/><path data-name="路径 141" d="M6104.516 2380.564v.678a1.9 1.9 0 001.125.227c2.2 0 6.285-2.5 8.084-2.919-3.344.706-5.571 2.014-9.209 2.014z"/><path data-name="路径 142" d="M6099.266 2379.733a9.493 9.493 0 0010.271 7.211c.484-1.328 1.146-3.927 1.146-3.927-2.452 0-5.114-3.371-11.377-3.371l-.04.086z"/><path data-name="路径 143" d="M6110.489 2383.008c-2.4-.168-5.085-3.363-11.183-3.363l-.04.086c.023.094.048.187.074.281 4.363.034 6.508 3 11.15 3z"/><path data-name="路径 144" d="M6107.187 2374.928a1.088 1.088 0 00-1.365-1.064 1.567 1.567 0 00-2.721 1.064zm7.262 0a.607.607 0 00-.761-.594.874.874 0 00-1.518.594z"/><path data-name="路径 145" d="M6108.499 2387.001a9.5 9.5 0 008.761-5.823h-.181c-5.425 0-9.249 4.266-13.753 4.289a9.453 9.453 0 005.173 1.534z"/><path data-name="路径 146" d="M6110.23 2374.644a1.006 1.006 0 00-.3.052 1.691 1.691 0 00-2.782 0 1.006 1.006 0 00-.3-.052 1.017 1.017 0 00-1.017 1.017h5.418a1.017 1.017 0 00-1.019-1.017zm7.167-.478a.8.8 0 00-.636-.05 1.421 1.421 0 00-2.338 0 .844.844 0 00-.256-.043.855.855 0 00-.855.855h4.337a10.542 10.542 0 00-.252-.759zm-16.458-2.416h4.12a1.6 1.6 0 00-2-1.56 2.342 2.342 0 00-.293-.263 9.553 9.553 0 00-1.827 1.823zm5.6 0a1.061 1.061 0 011.33-1.038 1.528 1.528 0 012.653 1.038h-3.984z"/><path data-name="路径 147" d="M6108.194 2372.29a1.061 1.061 0 011.33-1.038 1.528 1.528 0 012.653 1.038h-3.984z"/><path data-name="路径 148" d="M6101.692 2376.933a.1.1 0 01-.1-.1v-1.108a.103.103 0 01.206 0v1.108a.1.1 0 01-.106.1z"/><path data-name="路径 149" d="M6102.325 2375.643a.633.633 0 01-1.266 0c0-.35.283-1.425.633-1.425s.633 1.075.633 1.425z"/><path data-name="路径 150" d="M6114.306 2378.928a.166.166 0 01-.166-.166v-1.782a.166.166 0 01.331 0v1.783a.166.166 0 01-.165.165z"/><path data-name="路径 151" d="M6115.322 2376.852a1.019 1.019 0 11-2.037 0c0-.563.456-2.292 1.019-2.292s1.018 1.73 1.018 2.292zm.981 1.884a.1.1 0 01-.1-.1v-1.117a.104.104 0 01.208 0v1.115a.1.1 0 01-.107.1z"/><path data-name="路径 152" d="M6116.944 2377.435a.638.638 0 01-1.277 0c0-.353.286-1.436.638-1.436s.639 1.084.639 1.436z"/><path data-name="路径 153" d="M6105.962 2380.915a.106.106 0 01-.106-.106v-1.144a.106.106 0 01.213 0v1.144a.106.106 0 01-.107.106z"/><path data-name="路径 154" d="M6106.616 2379.584a.654.654 0 11-1.307 0c0-.361.293-1.471.654-1.471s.653 1.11.653 1.471z"/><path data-name="路径 155" d="M6102.907 2377.015a.064.064 0 01-.064-.064v-.688a.064.064 0 01.128 0v.688a.064.064 0 01-.064.064z"/><path data-name="路径 156" d="M6103.299 2376.214a.393.393 0 01-.786 0c0-.217.176-.885.393-.885s.393.668.393.885z"/></g><g data-name="蒙版组 6" clip-path="url(#b)" transform="translate(13)"><g data-name="组 438" transform="translate(5763 2168)"><rect data-name="矩形 739" width="19" height="19" rx="9.5" transform="translate(323 200)"/><path data-name="路径 157" d="M327.487 212.952c.828-2.648-1.949-4.831 0-6.163s3.056.76 3.809-1.164 2.037-1.57 3.43-.968 8.195 2.551 4.968 4.209-6.487-1.9-6.053.647.342 3.387-1.431 3.438-5.551 2.649-4.723.001z"/></g></g></g></g></svg>