<svg  viewBox="0 0 1024 1024" xmlns="http://www.w3.org/2000/svg" width="130" height="130"><defs><style/></defs><path d="M498.526 455.41H296.421l45.81-48.505c8.085-8.084 8.085-18.863 0-26.947s-18.863-8.084-26.947 0l-78.147 78.147-5.39 5.39c-2.694 5.39-2.694 10.779 0 13.473 0 2.695 2.695 5.39 5.39 5.39l80.842 80.842c2.695 2.695 8.084 5.39 13.474 5.39s10.779-2.695 13.473-5.39c8.085-8.084 8.085-18.863 0-26.947l-48.505-48.506h191.326c37.727 0 67.369 29.642 67.369 67.369s-29.642 67.368-67.369 67.368H409.6c-10.779 0-18.863 8.084-18.863 18.863s8.084 18.864 18.863 18.864h78.147c56.59 0 105.095-45.811 105.095-105.095-2.695-48.505-43.116-94.316-94.316-99.705z"/><path d="M962.021 353.01c-18.863-10.778-37.726-10.778-56.59 0l-123.957 70.064V285.642c0-51.2-40.421-91.62-91.621-91.62h-563.2c-51.2 0-91.621 40.42-91.621 91.62v479.663c0 51.2 40.42 91.621 91.62 91.621h560.506c51.2 0 91.62-40.42 91.62-91.62v-67.37L902.738 768c8.084 5.39 18.863 8.084 26.947 8.084 10.78 0 18.863-2.695 26.948-8.084 18.863-10.779 29.642-29.642 29.642-48.505v-317.98c2.694-21.557-8.085-40.42-24.253-48.504zM687.158 819.2H126.653c-29.642 0-53.895-24.253-53.895-53.895V285.642c0-29.642 24.253-53.895 53.895-53.895h560.505c29.642 0 53.895 24.253 53.895 53.895v479.663c2.694 29.642-24.253 53.895-53.895 53.895zm264.084-102.4c0 10.779-5.39 13.474-8.084 16.168-2.695 2.695-10.78 5.39-18.863 0l-142.821-80.842V466.19l142.82-83.536c8.085-5.39 16.17-2.695 18.864 0 2.695 2.694 8.084 5.39 8.084 16.168V716.8z"/></svg>