<svg class="icon" viewBox="0 0 1028 1024" xmlns="http://www.w3.org/2000/svg" width="200.781" height="200"><defs><style/></defs><path d="M258.133 509.867a256 256 0 10512 0 256 256 0 10-512 0zm256-339.2c-19.2 0-32-14.934-32-32v-108.8C482.133 12.8 494.933 0 512 0h2.133c17.067 0 32 14.933 32 32v108.8c0 14.933-14.933 29.867-32 29.867zm0 853.333c-19.2 0-32-14.933-32-32V883.2c0-17.067 14.934-32 32-32h2.134c17.066 0 32 14.933 32 32V992c-2.134 17.067-17.067 32-34.134 32zm339.2-514.133c0-19.2 14.934-32 32-32h108.8c17.067 0 32 14.933 32 32V512c0 17.067-14.933 32-32 32h-108.8c-17.066-2.133-32-17.067-32-34.133zM0 509.867c0-19.2 14.933-32 32-32h108.8c17.067 0 32 14.933 32 32V512c0 17.067-14.933 32-32 32H32c-17.067-2.133-32-17.067-32-34.133zm742.4-262.4c-12.8-12.8-12.8-32-2.133-44.8l76.8-76.8c12.8-12.8 32-12.8 44.8 0V128c12.8 12.8 12.8 32 0 44.8l-76.8 76.8c-10.667 10.667-32 10.667-42.667-2.133zM138.667 851.2c-12.8-12.8-12.8-34.133-2.134-44.8l76.8-76.8c12.8-12.8 32-12.8 44.8 0l2.134 2.133c12.8 12.8 12.8 32 0 44.8l-76.8 76.8c-12.8 10.667-32 10.667-44.8-2.133zm601.6-123.733c12.8-12.8 34.133-12.8 44.8-2.134l76.8 76.8c12.8 12.8 12.8 32 0 44.8l-2.134 2.134c-12.8 12.8-32 12.8-44.8 0l-76.8-76.8c-10.666-12.8-10.666-32 2.134-44.8zM136.533 123.733c12.8-12.8 34.134-12.8 44.8-2.133l76.8 76.8c12.8 12.8 12.8 32 0 44.8L256 245.333c-12.8 12.8-32 12.8-44.8 0l-74.667-76.8c-10.666-12.8-10.666-32 0-44.8z"/></svg>