<svg class="icon" viewBox="0 0 1024 1024" xmlns="http://www.w3.org/2000/svg" width="200" height="200"><defs><style/></defs><path d="M238.56 651.4a21 21 0 1028.73-30.63A137.75 137.75 0 01357 382.64h2.25q1 0 2.07-.13h.07c.67-.08 1.34-.19 2-.33l.36-.1c.55-.13 1.09-.27 1.62-.44.21-.07.41-.16.62-.23.43-.15.86-.31 1.28-.49.25-.11.5-.24.75-.36s.72-.34 1.07-.53.5-.31.76-.46.65-.39 1-.6.45-.34.68-.51.63-.46.93-.71.38-.35.57-.52.62-.55.92-.85.31-.35.47-.52c.3-.33.6-.65.88-1 .14-.17.26-.35.39-.53.27-.36.55-.72.8-1.1.13-.2.24-.4.36-.6.23-.37.46-.74.67-1.13s.25-.53.38-.8.34-.68.48-1 .28-.76.41-1.15.2-.52.28-.78c.16-.52.28-1.06.4-1.6 0-.14.07-.27.1-.42.12-.61.2-1.23.27-1.85v-.33a138 138 0 0114.54-50.09l.48-.86.12-.29a139.19 139.19 0 01122.9-75.07h.88c76.94 0 139.53 62.59 139.53 139.53a141.61 141.61 0 01-1.41 19.91c-.12.86-.25 1.7-.39 2.55a20.84 20.84 0 00-.25 2.07v2.22a20.84 20.84 0 00.19 2.11q.14 1 .39 2c.05.21.12.4.17.61.12.45.25.9.4 1.34s.25.65.39 1 .23.6.37.89.37.74.56 1.1.24.47.37.69.44.71.67 1.05.28.44.44.65.47.6.71.9.38.48.58.7.45.47.67.71.5.52.76.77.4.35.61.53.63.54 1 .8l.56.39c.37.26.73.52 1.12.76l.59.34c.39.22.77.45 1.17.64s.52.23.78.35.69.32 1.05.45.82.28 1.23.41c.23.07.46.16.69.22.63.17 1.26.31 1.91.42h.12c.27 0 .55.07.82.1s.77.1 1.15.13h2.72q.72 0 1.42-.13h.33a119.15 119.15 0 0114.08-1.13h2.55a117.2 117.2 0 0167 20.85 21 21 0 1023.89-34.54 158.93 158.93 0 00-87.36-28.26v-3.65c0-100.1-81.43-181.53-181.53-181.53h-1.06a181.05 181.05 0 00-160.45 98.46l-.48.87-.14.36a179.43 179.43 0 00-16.07 46.88 179.69 179.69 0 00-102 309.62zM664.7 501.28a21 21 0 002.09 41.95 236.63 236.63 0 01187.27 77 21 21 0 1031-28.31 280 280 0 00-220.4-90.62zm109.73 144.81a414.23 414.23 0 00-390.22 9.07c-5.18 2.91-10.3 6-15.34 9.09a21.1 21.1 0 00-3.65 2.07c-1.62 1.14-3.25 2.26-4.88 3.38-1.08.71-2.18 1.41-3.25 2.13-.26.17-.49.37-.73.55a371.43 371.43 0 01-202.17 62.08 21 21 0 00.23 42h.24a413.23 413.23 0 00229.15-71.92c6.81-4.45 13.85-8.74 21-12.77 146.23-82.32 330.6-56.51 448.35 62.78A21 21 0 10883.05 725a412.5 412.5 0 00-108.62-78.91z"/><path d="M679.07 727a281.89 281.89 0 00-120.62-15.78 21 21 0 003.74 41.83 236.64 236.64 0 01190.17 69.55 21 21 0 0029.89-29.51A280.5 280.5 0 00679.07 727z"/></svg>