<svg class="icon" viewBox="0 0 1024 1024" xmlns="http://www.w3.org/2000/svg" width="200" height="200"><defs><style/></defs><path d="M521.53 285.12L920.36 683.9a28.233 28.233 0 017.9 27.53 28.21 28.21 0 01-47.78 12.35L481.7 325.01c-11.05-11-11.09-28.87-.09-39.92s28.87-11.09 39.92-.09v.12zm-61.75-9.15"/><path d="M920.36 324.95L521.58 723.78a28.206 28.206 0 01-27.44 7.7 28.205 28.205 0 01-20.16-20.14c-2.59-9.86.34-20.36 7.67-27.45l398.83-398.78c11.11-10.31 28.38-10 39.11.71s11.07 27.98.78 39.1v.03zm-612.4 68.82c0-23.73-7.5-42.38-22.5-55.96-15-13.57-35.41-20.36-61.22-20.36-18.23 0-36.64 4.65-55.24 13.95-18.61 9.3-35.98 22.59-52.11 39.87v-54.11c14.43-15 30.8-26.48 49.12-34.46 18.32-7.97 39.82-11.96 64.5-11.96 39.87 0 71.95 10.68 96.25 32.04 24.3 21.36 36.45 50.26 36.45 86.71 0 32.46-7.45 60.56-22.35 84.29-14.91 23.73-40.39 48.03-76.46 72.9-36.83 25.44-61.46 43.67-73.9 54.68-12.44 11.01-21.12 21.55-26.06 31.61-4.94 10.06-7.4 22.31-7.4 36.74H376.3v49.55H98.94v-21.93c0-25.44 3.46-47.03 10.39-64.78 6.93-17.75 18.37-35.03 34.31-51.83 15.95-16.8 40.81-36.97 74.61-60.51 34.55-24.3 58.14-45.61 70.76-63.93 12.63-18.32 18.95-39.16 18.95-62.51z"/></svg>