<svg class="icon" viewBox="0 0 1024 1024" xmlns="http://www.w3.org/2000/svg" width="200" height="200"><defs><style/></defs><path d="M514.29 277.83l398.83 398.78a28.233 28.233 0 017.9 27.53 28.21 28.21 0 01-47.78 12.35L474.47 317.71c-11.05-11-11.09-28.87-.09-39.92s28.87-11.09 39.92-.09v.13zm-93.77-9.15"/><path d="M913.12 317.65L514.35 716.48a28.206 28.206 0 01-27.44 7.7 28.205 28.205 0 01-20.16-20.14c-2.59-9.86.34-20.36 7.67-27.45l398.83-398.78c11.11-10.31 28.38-10 39.11.71s11.07 27.98.78 39.1v.03zM220.13 723.4V346.08c-8.73 8.73-23.49 18.51-44.28 29.33-20.79 10.82-40.01 18.42-57.67 22.78v-54.68c23.35-6.45 48.31-16.75 74.89-30.9 26.58-14.14 46.99-27.48 61.22-40.01h21.07v450.8h-55.23z"/></svg>