<svg class="icon" viewBox="0 0 1024 1024" xmlns="http://www.w3.org/2000/svg" width="200" height="200"><defs><style/></defs><path d="M224.299 725.333V360.832h-7.766L65.792 414.848V473.6l86.23-26.752v278.485h72.277zm144.426 2.731c6.144 0 11.776-.939 16.854-2.859a37.973 37.973 0 0013.013-7.978 34.859 34.859 0 008.235-12.16 39.765 39.765 0 002.901-15.232 40.704 40.704 0 00-2.901-15.36 34.56 34.56 0 00-8.235-12.246 39.595 39.595 0 00-13.013-8.106 45.739 45.739 0 00-16.854-3.03c-6.186 0-11.776.982-16.768 2.987a39.893 39.893 0 00-12.885 8.107 34.56 34.56 0 00-8.235 12.288 40.704 40.704 0 00-2.858 15.36c0 5.504.938 10.581 2.858 15.232 1.92 4.693 4.694 8.704 8.235 12.16 3.584 3.413 7.893 6.058 12.885 7.978s10.582 2.859 16.768 2.859zm208.384 2.261c18.688 0 35.542-3.2 50.646-9.6 15.061-6.4 27.946-15.232 38.613-26.41 10.667-11.136 18.901-24.32 24.619-39.595 5.76-15.275 8.618-31.701 8.618-49.408 0-16.81-2.133-32.683-6.485-47.616a117.12 117.12 0 00-19.499-39.253 94.421 94.421 0 00-32.384-26.752 98.133 98.133 0 00-45.098-9.856c-15.702 0-29.654 2.688-41.899 8.106a101.035 101.035 0 00-31.616 21.632c2.005-14.506 6.059-27.562 12.117-39.253 6.102-11.648 14.08-21.59 24.022-29.739 9.898-8.149 21.674-14.464 35.37-18.858 13.654-4.438 29.056-6.656 46.251-6.656h4.267v-59.478h-10.24c-29.355 0-55.552 4.907-78.507 14.763-23.04 9.813-42.453 23.552-58.283 41.216a180.608 180.608 0 00-36.266 63.275 249.43 249.43 0 00-12.459 80.725V585.6c0 21.333 2.987 40.875 9.088 58.624 6.101 17.75 14.677 32.981 25.77 45.739 11.094 12.757 24.534 22.656 40.363 29.738 15.83 7.083 33.494 10.667 52.992 10.667zm-1.493-58.24c-7.979 0-15.36-1.578-22.101-4.736a45.227 45.227 0 01-17.28-14.378 72.704 72.704 0 01-11.094-24.15 127.53 127.53 0 01-4.01-33.706v-21.76a58.539 58.539 0 0134.986-30.891c5.547-1.75 11.52-2.645 18.006-2.645 8.32 0 15.786 1.621 22.357 4.906 6.613 3.243 12.245 7.808 16.896 13.739 4.693 5.93 8.192 12.928 10.624 20.992 2.432 8.107 3.627 16.981 3.627 26.624 0 9.515-1.28 18.304-3.755 26.368-2.517 8.107-5.973 15.061-10.496 20.907a49.024 49.024 0 01-16.384 13.738 45.653 45.653 0 01-21.333 4.992zm213.163 53.248l69.973-127.488 70.101 127.488h87.211L907.349 541.867l105.984-180.523h-86.229l-68.267 125.483-68.266-125.483h-86.23l105.984 180.48-108.8 183.51h87.254z"/></svg>