<svg class="icon" viewBox="0 0 1024 1024" xmlns="http://www.w3.org/2000/svg" width="200" height="200"><defs><style/></defs><path d="M91.608 0H854.67q24.094 0 24.094 24.094v974.378q0 24.094-24.094 24.094H91.61q-24.095 0-24.095-24.094V24.094Q67.514 0 91.608 0z"/><path d="M761.907 881.592a495.93 495.93 0 00117.121-140.638v-.698c-23.829-38.804-187.512-97.582-251.783-97.582-127.41 238.4-299.394 41.033-296.286 2.217-88.991-6.553-196.234 62.235-255.747 106.942a490.532 490.532 0 00184.429 179.634c62.777 34.695 421.201 16.371 502.266-49.875z"/><path d="M321.996 679.19c21.023 54.452 188.465 208.088 314.935-12.988 1 0 2.096 0 3.144.085-23.781-22.552-42.165-60.03-35.057-128.12-63.512 99.4-184.428 105.29-246.567 2.601 4.53 29.986 2.313 77.126-36.455 138.421z"/><path d="M353.74 552.876c5.614 19.962 150.781 155.503 282.335 122.253-38.55-47.405-24.865-121.41-22.455-165.49 13.625-29.95-255.88 16.625-259.88 43.237z"/><path d="M634.051 403.733a321.476 321.476 0 01-21.89 115.531c72.874-20.829 90.113-184.693 21.89-115.53z"/><path d="M608.608 316.73c-143.36 32.153-202.39-33.275-231.701-53.225-46.839 37.418-35.13 123.904-50.188 139.746a100.135 100.135 0 01-7.108-10.192c-13.095 356.786 329.584 332.62 326.403 18.902-30.925-47.441-25.395-48.525-37.406-95.232z"/><path d="M376.015 263.517c29.275 19.962 88.39 85.378 231.702 53.224 12.263 47.683 6.131 47.683 39.31 98.124 24.25 8.324 94.52-230.352-111.256-262.783-240.94-37.418-271.853 174.682-209.944 251.145 15.06-15.806 3.35-102.291 50.188-139.71zm-50.826 384.759S192.587 639.41 67.61 763.518c1.397 187.935 0 256.374 0 256.374h810.911v-277.66S759.255 632.687 631.81 648.264c96.642 135.192-64.21 160.889-64.21 160.889s-190.476-9.963-204.475-17.07-64.428-99.666-64.428-99.666z"/></svg>