<svg class="icon" viewBox="0 0 1024 1024" xmlns="http://www.w3.org/2000/svg" width="200" height="200"><defs><style/></defs><path d="M976 611.2c3.2-19.2-9.6-38.4-28.8-41.6-19.2-3.2-38.4 9.6-41.6 28.8C870.4 784 704 928 508.8 928c-224 0-403.2-179.2-403.2-400s179.2-400 403.2-400c124.8 0 236.8 57.6 310.4 144h-89.6c-19.2 0-35.2 16-35.2 35.2 0 19.2 16 35.2 35.2 35.2h176c19.2 0 35.2-16 35.2-35.2V128c0-19.2-16-35.2-35.2-35.2-19.2 0-35.2 16-35.2 35.2v99.2C784 121.6 652.8 57.6 505.6 57.6 246.4 57.6 32 268.8 32 528s214.4 470.4 476.8 473.6C742.4 998.4 934.4 832 976 611.2z"/></svg>