<svg class="icon" viewBox="0 0 1024 1024" xmlns="http://www.w3.org/2000/svg" width="200" height="200"><defs><style/></defs><path d="M664.209 1018.893a64.413 64.413 0 01-48.197-21.645 188.15 188.15 0 00-106.545-65.958 192.54 192.54 0 00-106.546 64.689 61.558 61.558 0 01-47.355 21.311 58.202 58.202 0 01-24.522-5.327l-.848-.591-125.149-73.654-.843-.93c-22.88-18.072-31.143-49.04-20.294-76.105a163.787 163.787 0 0011.837-53.443c1.99-74.942-56.983-137.388-131.916-139.694H58.76c-24.697-3.743-42.994-24.91-43.126-49.887a509.893 509.893 0 010-210.641c.155-25.288 18.909-46.604 43.969-49.975h4.228c74.933-2.3 133.906-64.751 131.916-139.694a165.884 165.884 0 00-11.837-53.525c-10.936-27.055-2.663-58.083 20.294-76.105l1.69-1.012 131.069-76.105 1.69-.678a55.273 55.273 0 0123.675-4.988 65.525 65.525 0 0148.202 20.802 182.772 182.772 0 00104.007 62.069 186.049 186.049 0 00104.008-60.888A64.173 64.173 0 01665.9 6.544a59.086 59.086 0 0124.522 5.158l.848.673 126.839 74.584 1.691.93c22.88 18.071 31.138 49.04 20.294 76.105a163.782 163.782 0 00-11.838 53.443c-1.99 74.942 56.978 137.388 131.916 139.694h4.223c25.065 3.37 43.819 24.682 43.974 49.974a510.04 510.04 0 010 210.636c-.195 25.258-18.939 46.527-43.974 49.892h-4.223c-74.938 2.301-133.906 64.752-131.916 139.696a165.876 165.876 0 0011.838 53.524c10.878 27.061 2.61 58.054-20.294 76.105l-1.691.93-128.53 75.515-1.69.59a54.086 54.086 0 01-23.68 5.071v-.171zm-4.228-64.349c1.323.635 2.766.983 4.228 1.017l120.922-70.525a212.12 212.12 0 01-16.914-78.134c-2.485-105.04 77.127-193.907 181.803-202.945a462.064 462.064 0 000-184.506c-104.677-9.038-184.288-97.905-181.803-202.944a212.167 212.167 0 0116.914-78.222L665.9 68.525c-1.768 0-3.511.435-5.071 1.268a296.12 296.12 0 01-43.126 38.981 178.094 178.094 0 01-103.166 41.014 174.189 174.189 0 01-103.16-41.774 282.866 282.866 0 01-43.974-39.829 11.013 11.013 0 00-5.075-1.182l-123.455 71.369a213.114 213.114 0 0116.914 78.135c2.485 105.038-77.127 193.906-181.808 202.944a462.247 462.247 0 000 184.506c104.681 9.038 184.293 97.905 181.808 202.945a211.532 211.532 0 01-16.914 78.222l116.693 68.829a11.842 11.842 0 004.229-1.012 315.898 315.898 0 0143.969-41.354 176.667 176.667 0 01105.703-43.629 174.602 174.602 0 01105.698 44.477 303.482 303.482 0 0144.816 42.279v-.17zm-150.514-257.23c-76.033 4.151-146.917-38.447-178.937-107.53-32.015-69.082-18.705-150.703 33.609-206.035 52.309-55.326 133.058-73.194 203.825-45.097s117.269 96.487 117.386 172.63c2.796 99.934-75.949 183.222-175.883 186.032zm0-308.813c-50.29-2.91-97.267 25.148-118.549 70.807-21.277 45.659-12.554 99.677 22.014 136.313 34.573 36.641 87.991 48.483 134.808 29.895 46.817-18.594 77.557-63.861 77.572-114.233 1.612-65.784-50.081-120.578-115.845-122.782zm0 0"/></svg>