<svg class="icon" viewBox="0 0 1032 1024" xmlns="http://www.w3.org/2000/svg" width="201.563" height="200"><defs><style/></defs><path d="M243.712 350.72c-17.92 0-32.256-14.336-32.256-32.256s14.336-32.256 32.256-32.256 32.256 14.336 32.256 32.256-14.336 32.256-32.256 32.256zM132.096 448c-17.92 0-32.256-14.336-32.256-32.256s14.336-32.256 32.256-32.256 32.256 14.336 32.256 32.256C163.84 433.664 149.504 448 132.096 448zm223.744 0c-17.92 0-32.256-14.336-32.256-32.256s14.336-32.256 31.744-32.256c17.92 0 32.256 14.336 32.256 32.256.512 17.92-13.824 32.256-31.744 32.256zM132.096 256c-17.92 0-32.256-14.336-32.256-32.256s14.336-32.256 32.256-32.256 32.256 14.336 32.256 32.256C163.84 241.664 149.504 256 132.096 256zm223.744 0c-17.92 0-32.256-14.336-32.256-32.256s14.336-32.256 31.744-32.256c17.92 0 32.256 14.336 32.256 32.256.512 17.92-13.824 32.256-31.744 32.256zM132.096 832.512c-17.92 0-32.256-14.336-32.256-32.256S114.176 768 132.096 768s32.256 14.336 32.256 32.256c-.512 17.92-14.848 32.256-32.256 32.256zm128-64.512h64c17.92 0 32.256 14.336 32.256 32.256s-14.336 32.256-32.256 32.256h-64c-17.92 0-32.256-14.336-32.256-32.256 0-17.408 14.336-32.256 32.256-32.256zm418.816-192c105.984-1.536 190.464-89.088 188.928-195.072C866.304 274.944 778.752 189.952 672.768 192c-105.984 1.536-190.464 88.576-188.928 194.56 0 17.92 14.336 32.256 32.256 32.256s32.256-14.336 32.256-32.256V384c0-70.656 57.344-128 128-128s128 57.344 128 128-57.344 128-128 128h-576c-17.92 0-32.256 14.336-32.256 32.256s14.336 32.256 32.256 32.256H675.84c1.024-.512 2.048-.512 3.072-.512zm184.32 64c52.736-2.56 97.792 38.4 100.864 91.136 2.56 53.248-38.4 98.304-91.136 100.864-17.92.512-32.256-13.824-32.768-31.232-.512-16.384 11.264-30.208 27.648-32.256h.512c17.92 0 31.744-14.336 31.744-32.256 0-16.896-13.312-30.72-30.208-31.744H99.84c-17.92 0-32.256-14.336-32.256-32.256S81.92 640 99.84 640h763.392zM675.328 794.624V806.4c-3.072 15.36-15.872 26.112-31.232 26.112h-64c-17.92 0-32.256-14.336-32.256-32.256S562.176 768 580.096 768h64c15.36 0 28.672 11.264 31.232 26.624zm-223.232 37.888c-17.92 0-32.256-14.336-32.256-32.256S434.176 768 452.096 768s32.256 14.336 32.256 32.256c-.512 17.92-14.848 32.256-32.256 32.256z"/></svg>