<svg xmlns="http://www.w3.org/2000/svg" width="53.063" height="55.501"><defs><filter id="a" x="0" y="2.501" width="53.063" height="53" filterUnits="userSpaceOnUse"><feOffset dy="3"/><feGaussianBlur stdDeviation="1.5" result="blur"/><feFlood flood-opacity="0"/><feComposite operator="in" in2="blur"/><feComposite in="SourceGraphic"/></filter></defs><g data-name="组 445" transform="translate(.552)"><ellipse data-name="椭圆 108" cx="21.032" cy="21" rx="21.032" ry="21" transform="translate(4.948 5.001)"/><path data-name="交叉 20" d="M8.998 42.931a24.053 24.053 0 01-3.118-3.82l.851-.565a23.108 23.108 0 009.568 8.259l-.424.929a23.928 23.928 0 01-6.877-4.803zm30.537 1.6a23.144 23.144 0 002.708-2.317 22.911 22.911 0 004.065-5.482l.917.453a23.919 23.919 0 01-4.259 5.749 24.177 24.177 0 01-2.812 2.409zm7.441-9.164l.2-.447q.254-.6.473-1.209l.973.315q-.233.651-.5 1.292-.094.221-.192.44zm.2-18.313A23.01 23.01 0 0031.269 3.648l.229-1a23.981 23.981 0 0118.021 18.529l-1 .213a22.72 22.72 0 00-1.347-4.342zM2.725 19.967A23.911 23.911 0 018.998 9.035a24.133 24.133 0 013.219-2.7l.586.837a23.106 23.106 0 00-8.011 9.876 22.8 22.8 0 00-1.078 3.175z"/><path data-name="交叉 21" d="M15.847 49.958a26 26 0 01-3.532-1.821l.074-.1a25.915 25.915 0 0028.237-.687l.073.1a26.114 26.114 0 01-24.852 2.507zm-8.274-5.572a25.978 25.978 0 01-6.62-11.2l.121-.035A25.851 25.851 0 007.661 44.3a26.177 26.177 0 002.244 2l-.08.1a26.3 26.3 0 01-2.252-2.014zm39.809-3.8a25.777 25.777 0 004.35-11.744l.125.011a25.889 25.889 0 01-4.372 11.807zm2.467-24.656A25.79 25.79 0 0044.3 7.708l.088-.089A25.9 25.9 0 0152 25.232h-.125a25.645 25.645 0 00-2.026-9.302zM0 24.349A25.9 25.9 0 017.573 7.616 26.081 26.081 0 0136.1 2.04l-.049.116A25.936 25.936 0 002.11 15.93a25.607 25.607 0 00-1.985 8.427z"/></g><g style="mix-blend-mode:overlay;isolation:isolate"><path data-name="路径 331" d="M38.699 24.075H27.462V12.833a11.935 11.935 0 0111.237 11.242z"/><path data-name="路径 332" d="M16.945 33.393a11.837 11.837 0 018.1-19.575v11.493zm8.959 4.1a11.836 11.836 0 0011.813-11.009l-11.44-.036-8.139 8.14a11.849 11.849 0 007.757 2.907h.007z"/></g><g transform="translate(0 .001)" filter="url(#a)"><path data-name="减去 124" d="M26.532 48a21.986 21.986 0 1120.3-30.563A22.006 22.006 0 0126.532 48zm0-42.045A20.031 20.031 0 1045.028 33.8a20.05 20.05 0 00-18.5-27.846z"/></g></svg>