<svg class="icon" viewBox="0 0 1024 1024" xmlns="http://www.w3.org/2000/svg" width="200" height="200"><defs><style/></defs><path d="M192 191.489C192 85.875 278.122 0 383.489 0h449.022C938.125 0 1024 86.122 1024 191.489v449.022C1024 746.125 937.878 832 832.511 832H383.489C277.875 832 192 745.878 192 640.511V191.489zm128 0v449.022C320 675.268 348.65 704 383.489 704h449.022C867.268 704 896 675.35 896 640.511V191.489C896 156.732 867.35 128 832.511 128H383.489C348.732 128 320 156.65 320 191.489z"/><path d="M254.734 320H191.55c-34.88 0-63.55 28.739-63.55 63.489v449.022C128 867.35 156.732 896 191.489 896h449.022C675.263 896 704 867.11 704 832.307v-64.085c0-35.346 28.654-64 64-64s64 28.654 64 64v64.085C832 937.65 746.108 1024 640.511 1024H191.489C86.122 1024 0 938.125 0 832.511V383.489C0 278.115 85.909 192 191.55 192h63.184c35.346 0 64 28.654 64 64s-28.654 64-64 64z"/></svg>