<svg class="icon" viewBox="0 0 1024 1024" xmlns="http://www.w3.org/2000/svg" width="200" height="200"><defs><style/></defs><path d="M310.938 256h658.278c31.232 0 54.784 25.395 54.784 54.733v658.483c0 31.283-25.446 54.733-54.835 54.733H310.938a54.682 54.682 0 01-54.784-54.733V312.678c-2.1-31.232 23.398-56.678 54.732-56.678z"/><path d="M66.97 0h736.46c37.428 0 66.97 29.542 66.97 66.97v94.515h-96.512V96.46H96.512v677.427h64.973V870.4H66.97C29.542 870.4 0 840.858 0 803.43V66.97C0 31.488 31.488 0 66.97 0z"/></svg>