<svg xmlns="http://www.w3.org/2000/svg" width="19.845" height="22.68"><path d="M7.97 6.293a1.574 1.574 0 101.6 1.574 1.587 1.587 0 00-1.6-1.574zm5.59 7.543l.451-.444a1.244 1.244 0 000-1.78l-.781-.768a5.914 5.914 0 00.588-1.384h.843A1.269 1.269 0 0015.94 8.2v-.63a1.27 1.27 0 00-1.279-1.26h-.833a5.855 5.855 0 00-.566-1.372l.75-.738a1.244 1.244 0 000-1.78l-.451-.446a1.293 1.293 0 00-1.808 0l-.736.724a6.1 6.1 0 00-1.449-.6v-.84A1.269 1.269 0 008.29 0h-.639a1.269 1.269 0 00-1.278 1.258V2.1a6.132 6.132 0 00-1.449.6l-.735-.724a1.293 1.293 0 00-1.808 0l-.452.446a1.246 1.246 0 000 1.78l.75.738a5.884 5.884 0 00-.566 1.372h-.835a1.269 1.269 0 00-1.279 1.26V8.2a1.268 1.268 0 001.279 1.26h.844a5.879 5.879 0 00.586 1.383l-.78.768a1.246 1.246 0 000 1.78l.452.444a1.293 1.293 0 001.808 0l.785-.773a6.062 6.062 0 001.4.566v.807a1.269 1.269 0 001.278 1.258h.639a1.269 1.269 0 001.278-1.258v-.805a6.041 6.041 0 001.4-.566l.786.773a1.293 1.293 0 001.807-.001zm-5.59-2.468a3.462 3.462 0 113.515-3.461 3.49 3.49 0 01-3.515 3.461zm11.255 6.762h-.4a2.814 2.814 0 00-.274-.666l.363-.359a.6.6 0 000-.864l-.219-.216a.628.628 0 00-.878 0l-.356.352a2.962 2.962 0 00-.7-.289v-.41a.615.615 0 00-.62-.61h-.31a.614.614 0 00-.62.61v.41a2.953 2.953 0 00-.7.289l-.357-.352a.627.627 0 00-.876 0l-.22.216a.606.606 0 000 .864l.364.359a2.928 2.928 0 00-.274.666h-.4a.615.615 0 00-.62.61v.3a.615.615 0 00.62.61h.41a2.857 2.857 0 00.284.671l-.379.372a.606.606 0 000 .864l.22.215a.624.624 0 00.876 0l.382-.374a2.912 2.912 0 00.678.274v.392a.615.615 0 00.62.61h.31a.616.616 0 00.62-.61v-.392a2.991 2.991 0 00.678-.274l.379.374a.626.626 0 00.878 0l.219-.215a.6.6 0 000-.864l-.378-.372a2.847 2.847 0 00.284-.671h.41a.614.614 0 00.62-.61v-.3a.614.614 0 00-.634-.61zm-3.247 2.452a1.679 1.679 0 111.708-1.682 1.692 1.692 0 01-1.708 1.682zm0-2.461a.763.763 0 10.775.763.769.769 0 00-.775-.764z"/></svg>