<svg class="icon" viewBox="0 0 1024 1024" xmlns="http://www.w3.org/2000/svg" width="200" height="200"><defs><style/></defs><path d="M918.3 651.7c-5.7 0-11.1 1.2-16.1 3.2l-.2.1s-.1.1-.2.1L512 816.4 122.1 655.1c-.1 0-.1 0-.2-.1l-.2-.1c-5-2.1-10.4-3.2-16.1-3.2-23.2 0-42 18.8-42 42 0 17.5 10.7 32.5 26 38.8l405.9 168c.1 0 .1 0 .2.1l.2.1c5 2.1 10.4 3.2 16.1 3.2 5.7 0 11.1-1.2 16.1-3.2l.2-.1c.1 0 .1-.1.2-.1l405.9-168c15.2-6.3 26-21.3 26-38.8 0-23.2-18.9-42-42.1-42zm0-182.1c-5.7 0-11.1 1.2-16.1 3.2l-.2.1c-.1 0-.1.1-.2.1L512 634.2 122.1 472.9c-.1 0-.1 0-.2-.1l-.2-.1c-5-2.1-10.4-3.2-16.1-3.2-23.2 0-42 18.8-42 42 0 17.5 10.7 32.5 26 38.8l405.9 168c.1 0 .1 0 .2.1l.2.1c5 2.1 10.4 3.2 16.1 3.2 5.7 0 11.1-1.2 16.1-3.2l.2-.1c.1 0 .1 0 .2-.1l405.9-168c15.2-6.3 26-21.3 26-38.8 0-23.1-18.9-41.9-42.1-41.9zM89.6 368.3l405.9 168c.1 0 .1 0 .2.1l.2.1c5 2.1 10.4 3.2 16.1 3.2 5.7 0 11.1-1.2 16.1-3.2l.2-.1c.1 0 .1 0 .2-.1l405.9-168c15.2-6.3 26-21.3 26-38.8 0-17.5-10.7-32.5-26-38.8l-405.9-168c-.1 0-.1 0-.2-.1l-.2-.1c-5-2-10.4-3.2-16.1-3.2-5.7 0-11.1 1.2-16.1 3.2l-.2.1c-.1 0-.1.1-.2.1l-405.9 168c-15.2 6.3-26 21.3-26 38.8s10.8 32.5 26 38.8z"/></svg>