<svg class="icon" viewBox="0 0 1024 1024" xmlns="http://www.w3.org/2000/svg" width="200" height="200"><defs><style/></defs><path d="M777.376 758.624a31.968 31.968 0 0045.248 0l160-160a31.968 31.968 0 000-45.248l-160-160a31.968 31.968 0 10-45.248 45.248L914.752 576 777.376 713.376a31.968 31.968 0 000 45.248zM624.96 376.256l-96 384a32 32 0 1062.112 15.52l96-384a32 32 0 10-62.112-15.52zm-186.336 17.12a31.968 31.968 0 00-45.248 0l-160 160a31.968 31.968 0 000 45.248l160 160a31.968 31.968 0 1045.248-45.248L301.248 576l137.376-137.376a31.968 31.968 0 000-45.248z"/><path d="M896 96H128a96 96 0 00-96 96v640a96 96 0 0096 96h768a96 96 0 0096-96v-51.552a32 32 0 00-64 0V832a32 32 0 01-32 32H128a32 32 0 01-32-32V304h832v64a32 32 0 0064 0V192a96 96 0 00-96-96zm32 144H96v-48a32 32 0 0132-32h768a32 32 0 0132 32v48z"/></svg>