<svg class="icon" viewBox="0 0 1024 1024" xmlns="http://www.w3.org/2000/svg" width="200" height="200"><defs><style/></defs><path d="M1024 512A512 512 0 11512 0a512 512 0 01512 512zM512 143.36A368.64 368.64 0 10880.64 512 368.64 368.64 0 00512 143.36zm32.051 298.598q59.904-51.916 83.968-97.996c27.955 14.745 45.363 26.726 52.02 36.044 0 1.332-2.663 3.277-7.988 6.042a76.288 76.288 0 00-18.022 10.24A389.94 389.94 0 00614.4 430.08q-43.93 46.08-163.84 128 45.875 0 113.971-3.994 43.93-2.048 69.94-1.945a306.586 306.586 0 0016.076-88.064q53.863 6.041 61.952 14.029 0 2.048-3.993 3.993a42.291 42.291 0 00-14.03 20.48 64.307 64.307 0 00-3.993 14.029q-31.949 112.026-99.942 153.6-83.968 54.067-244.02 71.68a136.397 136.397 0 00-30.003-41.984c-2.662-2.662-3.993-4.71-3.993-6.042q229.99 0 304.025-107.93-38.092 2.049-106.086 5.94a1230.438 1230.438 0 00-130.458 12.288L358.4 557.978q75.98-11.981 147.968-83.968A1063.936 1063.936 0 00358.4 485.99l-16.384-45.67q33.997-6.042 74.035-41.984A555.11 555.11 0 00501.76 282.01q46.08 18.022 52.02 27.955c0 1.331-1.332 2.765-3.994 3.993a48.538 48.538 0 00-15.975 10.24q-10.24 10.24-36.045 37.99a823.296 823.296 0 01-86.016 86.017z"/></svg>