<svg class="icon" viewBox="0 0 1024 1024" xmlns="http://www.w3.org/2000/svg" width="200" height="200"><defs><style/></defs><path d="M813.6 303.1H210.4c-18.6 0-33.7-15.1-33.7-33.7s15.1-33.7 33.7-33.7h603.3c18.6 0 33.7 15.1 33.7 33.7s-15.1 33.7-33.8 33.7zm0 161.7h-116c-18.6 0-33.7-15.1-33.7-33.7s15.1-33.7 33.7-33.7h116c18.6 0 33.7 15.1 33.7 33.7s-15 33.7-33.7 33.7zm-229.1 0H210.4c-18.6 0-33.7-15.1-33.7-33.7s15.1-33.7 33.7-33.7h374.2c18.6 0 33.7 15.1 33.7 33.7s-15.2 33.7-33.8 33.7zm229.1 161.8H210.4c-18.6 0-33.7-15.1-33.7-33.7s15.1-33.7 33.7-33.7h603.3c18.6 0 33.7 15.1 33.7 33.7s-15.1 33.7-33.8 33.7zM326.4 788.3h-116c-18.6 0-33.7-15.1-33.7-33.7s15.1-33.7 33.7-33.7h116c18.6 0 33.7 15.1 33.7 33.7s-15.1 33.7-33.7 33.7zm487.2 0H439.5c-18.6 0-33.7-15.1-33.7-33.7s15.1-33.7 33.7-33.7h374.2c18.6 0 33.7 15.1 33.7 33.7-.1 18.6-15.1 33.7-33.8 33.7z"/></svg>