<svg class="icon" viewBox="0 0 1024 1024" xmlns="http://www.w3.org/2000/svg" width="200" height="200"><defs><style/></defs><path d="M487.531 671.656c-4.125-.468-8.062 1.313-10.312 4.688l-58.875 87.75c-6.75 14.625-7.406 31.031-1.781 46.218 11.625 31.125 46.406 47.157 77.718 35.438 31.125-11.625 47.063-46.5 35.438-77.625l-33.375-89.531c-1.313-3.75-4.781-6.375-8.813-6.938z"/><path d="M872.656 354.031c-38.343-39.562-88.687-61.781-142.218-63.094-22.5-34.78-52.782-64.125-88.5-85.406-41.625-24.844-89.157-37.969-137.813-37.969-122.531 0-228.656 82.594-259.969 199.22-37.406 4.78-72.281 22.5-99.656 50.906-31.875 33.187-49.5 76.5-49.5 122.062 0 45.469 17.531 88.875 49.594 122.063 32.437 33.656 75.281 52.312 120.75 52.312h59.625l13.125-71.813h-60.281c-60.188 0-111-50.718-111-110.812 0-59.906 50.625-110.719 110.718-110.813.188 0 .375 0 .656-.093l21.188.094 3.844-20.063c18.094-93.375 102.75-161.156 201.375-161.156 73.875 0 142.312 38.719 178.594 100.875l7.78 13.219 15.657-.844c2.906-.094 5.531-.188 8.156-.188 79.313 0 146.344 66.375 146.344 144.844 0 78.563-67.031 144.844-146.344 144.844h-59.906L641.75 714.03h83.625c55.313 0 107.438-22.406 147.094-63 39-40.218 60.468-92.906 60.468-148.5.188-55.594-21.28-108.281-60.28-148.5z"/></svg>