<svg class="icon" viewBox="0 0 1024 1024" xmlns="http://www.w3.org/2000/svg" width="200" height="200"><defs><style/></defs><path d="M89.899 554.667h822.869a32 32 0 000-64H89.898a32 32 0 000 64z"/><path d="M320.555 522.667L181.568 661.653a32 32 0 1045.248 45.27l184.277-184.256L226.837 338.41a32 32 0 10-45.248 45.269l138.987 138.987zM821.12 661.653a32 32 0 01-45.27 45.27L591.574 522.667 775.83 338.41a32 32 0 1145.248 45.269L682.112 522.667l138.987 138.986zM533.333 934.101V111.232a32 32 0 00-64 0v822.87a32 32 0 0064 0z"/><path d="M501.333 703.445L640.32 842.432a32 32 0 1045.27-45.248L501.332 612.907 317.077 797.163a32 32 0 1045.27 45.248l138.986-138.987zm0-361.557L640.32 202.901a32 32 0 0145.27 45.248L501.332 432.427 317.077 248.17a32 32 0 1145.27-45.248l138.986 138.986z"/></svg>