<svg class="icon" viewBox="0 0 1024 1024" xmlns="http://www.w3.org/2000/svg" width="200" height="200"><defs><style/></defs><path d="M326.732 580.578c-54.564 27.702-101.203 63.782-101.203 99.585v18.566c0 38.343 101.106 71.383 101.106 71.383l39.07-4.95-3.493.098c.001 0-32.763-186.025-35.48-184.682zM622.286 272.83c0-87.57-119.185-131.299-119.185-131.299-16.884-7.616-33.606-5.902-50.91 0 0 0-119.217 38.393-119.217 131.299 0 13.843-25.131 10.884-33.475 54.773h356.295c-15.136-44.181-33.508-40.93-33.508-54.773zm-43.728 491.993l7.018-.178c-1.034-.13-3.33-.389-6.856-.792-.064.274-.162.97-.162.97zm49.906-184.181c-3.266-1.585-34.543 183.825-34.543 183.825l-8.345.178c.42.048 1.36.178 1.36.178l42.013 5.386s100.945-32.99 100.945-71.48v-18.566c0-36.548-46.025-72.401-101.43-99.52zm-24.743-9.137c-14.716-6.324-29.465-13.923-44.148-18.808-3.623-1.18-26.715-11.578-12.324-55.371h-.226c34.025-34.883 57.96-68.957 57.96-144.317H351.151c0 76.136 23.385 109.903 57.507 144.753 14.813 38.618-11.579 52.962-17.142 54.935-14.877 5.4-24.84 11.837-39.976 18.808-2.717 1.246 23.642 182.044 25.163 192.33a1458.05 1458.05 0 0145.022-4.511l55.373 97.11 56.794-97.095c18.63 1.585 35.45 3.412 44.83 4.512 1.486-10.202 28.655-190.857 25-192.346zM365.706 765.163l11.126-.34s-.129-.696-.129-.986c-4.916.566-8.344.986-8.344.986l-2.653.34z"/></svg>