<svg class="icon" viewBox="0 0 1024 1024" xmlns="http://www.w3.org/2000/svg" width="200" height="200"><defs><style/></defs><path d="M239.936 398.784a32 32 0 110-64 32 32 0 010 64zM128 496a32 32 0 110-64 32 32 0 010 64zm224 0a32 32 0 11-.032-64 32 32 0 010 64zM128 304.128a32 32 0 110-64 32 32 0 010 64zM672 624H96a32 32 0 010-64h576a128 128 0 10-128-125.728 32 32 0 11-64-.64V432a192 192 0 11192 192zM352 304.128a32 32 0 11-.032-64 32 32 0 010 64zM96 720h832a32 32 0 010 64H96a32 32 0 010-64z"/></svg>