<svg class="icon" viewBox="0 0 1024 1024" xmlns="http://www.w3.org/2000/svg" width="200" height="200"><defs><style/></defs><path d="M791.398 300.15c-46.038-85.78-136.57-144.116-240.736-144.116-112.36 0-208.851 67.874-250.754 164.85-4.043 9.31-5.947 17.818-7.055 23.296-40.679 28.813-73.134 68.47-93.14 114.77-93.4 19.774-163.493 102.681-163.493 201.972 0 114.026 92.436 206.463 206.462 206.463 2.625 0 5.236-.056 7.838-.153h436.798v-.28c100.284-2.26 183.57-73.345 204.494-167.875 63.021-37.357 105.274-106.053 105.274-184.625 0-115.512-91.311-209.68-205.687-214.302zM687.317 798.557s-15.67.363-19.61-.09H242.314c-.083 0-.165.005-.248.005-.092 0-.184-.003-.276-.004h-1.221v-.016c-77.96-.803-135.16-58.486-135.16-136.636 0-78.65 58.006-136.656 136.657-136.656.868 0 1.732.017 2.597.032 5.21-22.64 19.812-49.638 31.642-68.853l-.107-.016c12.278-19.901 22.012-31.86 39.984-46.664.108-.089.219-.176.327-.265.953-.782 1.914-1.554 2.88-2.32.493-.39.987-.78 1.483-1.168.435-.338.873-.67 1.31-1.004 35.642-27.34 80.228-43.6 128.619-43.6 94.637 0 174.75 62.152 201.77 147.862a153.217 153.217 0 0132.68-3.518 153.39 153.39 0 0130.66 3.08c-.003-.006-.004-.014-.006-.02a150.96 150.96 0 0110.85 2.653l.685.195a155.679 155.679 0 015.494 1.696c.634.208 1.268.417 1.9.634.212.073.423.15.635.223 59.643 20.769 96.697 71.731 96.697 138.452-.001 83.628-61.488 144.89-144.85 145.998zm206.433-182.79c-16.946-98.136-100.579-173.43-202.548-177.552C645.164 352.436 554.632 294.1 450.466 294.1c-21.616 0-42.64 2.522-62.807 7.27 8.021-10.888 16.45-19.671 28.719-29.777.108-.09.218-.176.327-.266a282.117 282.117 0 014.363-3.488c.435-.337.873-.67 1.31-1.004 35.641-27.34 80.228-43.6 128.618-43.6 94.638 0 174.752 62.152 201.77 147.862a153.217 153.217 0 0132.68-3.517c10.502 0 20.756 1.061 30.66 3.08l-.005-.02c3.668.75 7.283 1.642 10.85 2.652.228.064.456.13.685.196a155.679 155.679 0 015.493 1.696c.635.208 1.269.417 1.9.634.213.072.424.15.636.223 59.643 20.769 96.697 71.73 96.697 138.452-.001 40.407-14.37 75.575-38.612 101.274z"/></svg>