<svg class="icon" viewBox="0 0 1024 1024" xmlns="http://www.w3.org/2000/svg" width="200" height="200"><defs><style/></defs><path d="M709.376 654.677l-66.133 66.134a21.504 21.504 0 1030.464 30.421l66.133-66.133a21.504 21.504 0 10-30.464-30.422z"/><path d="M643.243 685.099l66.133 66.133a21.504 21.504 0 1030.421-30.464l-66.133-66.133a21.504 21.504 0 10-30.421 30.464zm-304-16.683a21.504 21.504 0 00-30.422 0l-66.133 66.09a21.504 21.504 0 1030.464 30.422l66.133-66.133a21.504 21.504 0 00-.042-30.379zM193.365 353.152c-59.349 0-107.648 48.299-107.648 107.648s48.299 107.648 107.648 107.648H766.08a172.373 172.373 0 00172.203-172.203A172.416 172.416 0 00766.08 224c-19.541 0-38.997 3.413-57.899 10.197l-17.792 6.358-8.618-16.768A235.947 235.947 0 00471.125 94.805a237.099 237.099 0 00-236.842 236.843v25.003l-24.662-2.091a103.765 103.765 0 00-16.256-1.408zM766.08 611.499H193.365A150.827 150.827 0 0142.667 460.8a150.87 150.87 0 01149.589-150.699c11.648-145.066 132.267-258.346 278.87-258.346A278.741 278.741 0 01711.252 188.16c18.006-4.821 36.395-7.253 54.827-7.253a215.467 215.467 0 01215.253 215.296A215.51 215.51 0 01766.08 611.499zM487.808 866.475a21.504 21.504 0 00-30.421 0l-66.134 66.09a21.504 21.504 0 1030.464 30.422l66.134-66.134a21.504 21.504 0 00-.043-30.378zm23.509-162.262l-66.133 66.134a21.504 21.504 0 1030.464 30.421l66.133-66.133a21.504 21.504 0 10-30.464-30.422z"/><path d="M445.184 734.635l66.133 66.133a21.504 21.504 0 1030.422-30.464l-66.134-66.133a21.504 21.504 0 10-30.421 30.464z"/></svg>