<svg class="icon" viewBox="0 0 1024 1024" xmlns="http://www.w3.org/2000/svg" width="200" height="200"><defs><style/></defs><path d="M291.482 453.447c-5.666 9.813-2.274 22.133 7.444 27.744a20.261 20.261 0 0027.75-7.423l42.052-72.837 42.053 72.837c5.666 9.813 18.03 13.034 27.749 7.423a20.26 20.26 0 007.444-27.744l-42.781-74.1h87.506c11.33 0 20.304-9.097 20.304-20.32a20.261 20.261 0 00-20.304-20.32h-86.047l41.322-71.573c5.666-9.813 2.275-22.132-7.444-27.744a20.261 20.261 0 00-27.75 7.424l-42.052 72.836-42.052-72.836c-5.666-9.812-18.03-13.035-27.75-7.424a20.261 20.261 0 00-7.444 27.744l41.322 71.573H252.1c-11.331 0-20.305 9.097-20.305 20.32a20.262 20.262 0 0020.305 20.32h82.162l-42.781 74.1zm339.183 252.144c0 44.058 35.716 79.774 79.774 79.774s79.773-35.716 79.773-79.774-79.773-159.548-79.773-159.548-79.774 115.49-79.774 159.548zm155.123-434.323c-8.57-8.569-22.468-8.569-31.037 0L276.117 749.911c-8.57 8.569-8.57 22.452 0 31.021 4.284 4.285 9.893 6.427 15.51 6.427s11.226-2.142 15.51-6.427l478.65-478.642c8.554-8.57 8.554-22.453 0-31.022z"/></svg>