<svg class="icon" viewBox="0 0 1047 1024" xmlns="http://www.w3.org/2000/svg" width="204.492" height="200"><defs><style/></defs><path d="M437.12 748.87h432.477c2.91 0 5.888 0 8.68.326v-.326a128.233 128.233 0 00128.117-128.117 128.256 128.256 0 00-128.116-128.14c-9.938 0-20.364 1.327-30.883 3.91a12.66 12.66 0 01-15.476-10.24A185.25 185.25 0 00648.04 328.96c-102.866 0-186.485 83.619-186.485 186.415 0 5.073.373 10.007.722 14.964a12.218 12.218 0 01-3.724 10.077 12.684 12.684 0 01-10.123 3.49 102.935 102.935 0 00-114.153 102.145A102.935 102.935 0 00437.143 748.87m-.698-230.75v-2.745c0-116.667 94.906-211.596 211.596-211.596a210.292 210.292 0 01206.336 165.678 150.11 150.11 0 0123.9-1.954 153.437 153.437 0 01153.298 153.25 153.46 153.46 0 01-153.297 153.251H437.12a128.07 128.07 0 01-127.953-127.93 128.093 128.093 0 01127.255-127.953zm-249.74-127.045c0-112.058 91.136-203.218 203.171-203.218 68.539 0 127.86 29.324 165.679 86.598a12.567 12.567 0 01-21.039 13.848c-33.14-50.153-84.596-75.288-144.64-75.288-98.117 0-178.036 79.896-178.036 178.06a177.548 177.548 0 0081.664 149.737 12.614 12.614 0 01-13.684 21.178 202.822 202.822 0 01-93.115-170.915zM387.27 125.673a12.567 12.567 0 01-12.614-12.614V12.567a12.567 12.567 0 1125.135 0v100.469a12.567 12.567 0 01-12.521 12.613zM249.612 164.77a12.614 12.614 0 01-17.339-4.073l-52.829-85.41a12.614 12.614 0 0121.411-13.266l52.83 85.434a12.428 12.428 0 01-4.073 17.315zm-104.03 105.821a12.73 12.73 0 01-5.887-1.466l-88.6-47.477a12.474 12.474 0 01-5.143-17.035 12.567 12.567 0 0116.99-5.12l88.622 47.476c6.144 3.258 8.494 10.869 5.19 16.99a12.614 12.614 0 01-11.148 6.632zM12.626 373.76h.094l100.491.303a12.59 12.59 0 010 25.157h-.07l-100.584-.325a12.567 12.567 0 01.07-25.135zM52.26 555.683l88.32-48.244a12.567 12.567 0 0112.055 22.109l-88.343 48.197a12.684 12.684 0 01-17.036-5.026 12.66 12.66 0 014.98-17.083zm669.88-337.455l-88.25 48.245a12.544 12.544 0 01-17.036-5.027 12.614 12.614 0 014.98-17.06l88.274-48.197a12.45 12.45 0 0117.036 5.004 12.497 12.497 0 01-5.004 17.012zm-490.938 394.59a12.567 12.567 0 1121.248 13.311l-53.295 85.295a12.497 12.497 0 01-17.245 3.98 12.614 12.614 0 01-4.05-17.339l53.342-85.248zm312.064-451.724a12.637 12.637 0 01-17.338 3.98 12.567 12.567 0 01-3.957-17.339l53.341-85.294a12.567 12.567 0 1121.295 13.335l-53.341 85.318zm218.95 726.877a12.8 12.8 0 015.702 17.338l-46.15 91.927a12.893 12.893 0 01-17.385 5.702 12.963 12.963 0 01-5.748-17.338l46.173-91.857a12.986 12.986 0 0117.408-5.772zm-232.728 0a12.8 12.8 0 015.702 17.338l-46.15 91.927a12.893 12.893 0 01-17.384 5.702 12.963 12.963 0 01-5.749-17.338l46.173-91.857a12.986 12.986 0 0117.408-5.772z"/></svg>