<svg class="icon" viewBox="0 0 1024 1024" xmlns="http://www.w3.org/2000/svg" width="200" height="200"><defs><style/></defs><path d="M382.1 492.6c-2.6 0-5.3-.6-7.8-1.8-24.5-12.2-45.2-30.9-59.8-54.1-15.1-23.9-23-51.4-23-79.8 0-82.5 67.1-149.6 149.6-149.6 63 0 119.6 39.9 140.9 99.2 3.3 9.1-1.5 19.1-10.6 22.4-9.1 3.3-19.1-1.5-22.4-10.6-16.3-45.4-59.6-76-107.9-76-63.2 0-114.6 51.4-114.6 114.6 0 43.7 24.3 83 63.5 102.6 8.7 4.3 12.2 14.8 7.9 23.5-3.2 6-9.4 9.6-15.8 9.6zm70.1-296h-22.4c-.9 0-1.7-.8-1.7-1.7v-95c0-.9.8-1.7 1.7-1.7h22.4c.9 0 1.7.8 1.7 1.7v94.9c0 1-.8 1.8-1.7 1.8z"/><path d="M333.9 234.5l-15.3 15.3c-.6.6-1.7.6-2.3 0l-64.5-64.5c-.6-.6-.6-1.7 0-2.3l15.3-15.3c.6-.6 1.7-.6 2.3 0l64.5 64.5c.6.6.6 1.7 0 2.3zm-56.2 111.8v21.1c0 .9-.7 1.6-1.6 1.6h-89.2c-.9 0-1.6-.7-1.6-1.6v-21.1c0-.9.7-1.6 1.6-1.6h89.2c.9 0 1.6.7 1.6 1.6zm40.5 118.4l15 15c.6.6.6 1.7 0 2.3l-63.3 63.3c-.6.6-1.7.6-2.3 0l-15-15c-.6-.6-.6-1.7 0-2.3l63.3-63.3c.6-.7 1.6-.7 2.3 0zm244.2-213.6l-15.7-15.7c-.7-.7-.7-1.7 0-2.4l66.5-66.5c.7-.7 1.7-.7 2.4 0l15.7 15.7c.7.7.7 1.7 0 2.4l-66.5 66.5c-.6.7-1.7.7-2.4 0zm183 265.9c-9.7 0-17.5-7.8-17.5-17.5 0-60.4-49.2-109.6-109.6-109.6S508.7 439 508.7 499.5c0 9.7-7.8 17.5-17.5 17.5s-17.5-7.8-17.5-17.5c0-79.7 64.9-144.6 144.6-144.6 79.7 0 144.6 64.9 144.6 144.6 0 9.6-7.9 17.5-17.5 17.5z"/><path d="M757.1 720.4h-279c-65.1 0-118.1-53-118.1-118.2S413 484 478.1 484h11.1c9.7 0 17.5 7.8 17.5 17.5s-7.8 17.5-17.5 17.5h-11.1c-45.8 0-83.1 37.3-83.1 83.2 0 45.9 37.3 83.2 83.1 83.2h279c45.8 0 83.1-37.3 83.1-83.2 0-45.9-37.3-83.2-83.1-83.2h-11.7c-9.7 0-17.5-7.8-17.5-17.5s7.8-17.5 17.5-17.5h11.7c65.1 0 118.1 53 118.1 118.2.1 65.1-52.9 118.2-118.1 118.2zM568.4 836L557 823.9c-.5-.6-.5-1.4.1-2l64.9-61.4c.6-.5 1.4-.5 2 .1l11.4 12.1c.5.6.5 1.4-.1 2L570.4 836c-.6.6-1.4.5-2 0z"/><path d="M598.8 845l16.2-3.9c.7-.2 1.2-.9 1-1.7l-20.7-87c-.2-.7-.9-1.2-1.7-1l-16.2 3.9c-.7.2-1.2.9-1 1.7l20.7 87c.2.7.9 1.2 1.7 1z"/><path d="M549.5 794.4l4.3-16.1c.2-.7 1-1.2 1.7-1l86.4 23.1c.7.2 1.2 1 1 1.7l-4.3 16.1c-.2.7-1 1.2-1.7 1l-86.4-23.1c-.8-.2-1.2-1-1-1.7zM450 926.6l-11.4-12.1c-.5-.6-.5-1.4.1-2l64.9-61.4c.6-.5 1.4-.5 2 .1l11.4 12.1c.5.6.5 1.4-.1 2L452 926.7c-.6.5-1.5.5-2-.1z"/><path d="M480.3 935.7l16.2-3.9c.7-.2 1.2-.9 1-1.7l-20.7-87c-.2-.7-.9-1.2-1.7-1L459 846c-.7.2-1.2.9-1 1.7l20.7 87c.1.7.9 1.2 1.6 1z"/><path d="M431.1 885.1l4.3-16.1c.2-.7 1-1.2 1.7-1l86.4 23.1c.7.2 1.2 1 1 1.7l-4.3 16.1c-.2.7-1 1.2-1.7 1L432 886.8c-.7-.2-1.1-1-.9-1.7z"/></svg>