<svg class="icon" viewBox="0 0 1024 1024" xmlns="http://www.w3.org/2000/svg" width="200" height="200"><defs><style/></defs><path d="M958.469 539.177h-.977c-9.808 111.158-80.604 200.669-230.748 200.669-75.458 0-133.859-29.101-173.67-73.695-16.185-17.589-29.38-37.692-39.441-59.464a236.08 236.08 0 01-2.677-3.657c-1.2 1.725-2.406 3.357-3.612 4.984-34.778 75.787-106.505 131.832-210.988 131.832-149.761 0-220.364-89.512-230.148-200.669h-.612c-.315-5.048-.476-10.1-.476-15.151v-.025c0-.838.014-1.67.022-2.506 0-.15.005-.299.006-.449a326.239 326.239 0 01-.133-6.87c-.008-.838-.024-1.67-.024-2.51v-.025c0-5.054.163-10.112.476-15.164h.87c9.798-111.048 80.411-200.467 230.177-200.467 104.497 0 176.236 55.997 211.018 131.722 1.207 1.629 2.414 3.258 3.614 4.982a251.84 251.84 0 012.676-3.656c10.062-21.754 23.262-41.841 39.449-59.414 39.816-44.557 98.227-73.634 173.696-73.634 150.148 0 220.956 89.418 230.776 200.467h.473c.309 4.942.467 9.891.472 14.835.168 4.215.259 8.452.259 12.715 0 5.05-.161 10.102-.478 15.15zM286.507 397.576c-57.774 1.33-97.815 29.337-115.915 67.988-4.421 9.731-7.487 20.119-9.146 30.912h.5a137.013 137.013 0 00-1.894 16.705c-.014.79-.061 1.573-.061 2.366 0 7.903.713 15.818 2.096 23.631h-.786c1.659 10.815 4.725 21.224 9.152 30.972 18.096 38.683 58.129 66.714 115.897 68.046 101.742 2.513 126.826-57.589 161.116-120.525-34.201-62.767-59.382-122.603-160.959-120.095zm571.341 98.9c-8.486-53.798-52.886-97.236-125.002-98.9-33.76-.836-59.018 5.288-79.009 16.098-38.633 22.341-57.202 62.736-79.725 104.346 22.43 41.512 41.001 81.771 79.516 104.064 19.988 10.818 45.241 16.948 78.996 16.112 72.12-1.667 116.521-45.16 124.989-99.018h-.372c.868-4.818 1.44-9.675 1.779-14.546.056-1.526.106-3.055.106-4.592 0-7.882-.722-15.773-2.123-23.564h.845zM511.798 207.6c-24.687 0-44.703-19.403-44.703-43.342 0-23.938 20.015-43.342 44.703-43.342 24.692 0 44.706 19.405 44.706 43.342-.001 23.939-20.014 43.342-44.706 43.342zm0 607.758c24.692 0 44.706 19.406 44.706 43.344 0 23.939-20.014 43.341-44.706 43.341-24.687 0-44.703-19.401-44.703-43.341 0-23.938 20.015-43.344 44.703-43.344z"/></svg>