<svg class="icon" viewBox="0 0 1024 1024" xmlns="http://www.w3.org/2000/svg" width="200" height="200"><defs><style/></defs><path d="M879.974 371.726c-18.53-161.014-155.22-286.05-321.115-286.05-128.905 0-240.18 75.504-292.087 184.717-2.446-.07-4.899-.114-7.362-.114-139.728 0-253.014 113.332-253.014 253.141 0 139.812 113.286 253.144 253.014 253.144.809 0 1.61-.022 2.417-.03v1.836h66.526l57.404-94.173H275.514c-5.08.48-10.23.725-15.436.725-89.574 0-162.183-72.655-162.183-162.278s72.61-162.278 162.183-162.278c24.784 0 48.264 5.571 69.271 15.515 16.634-111.773 112.945-197.515 229.287-197.515 128.043 0 231.836 103.854 231.836 231.966 0 16.613-1.76 32.813-5.077 48.437a115.28 115.28 0 0128.4-3.537c63.601 0 115.151 51.584 115.151 115.208 0 63.622-51.55 115.197-115.15 115.197-6.158 0-12.193-.511-18.09-1.442h-56.578l-33.853 94.173H811.52v-.437c.372.002.742.014 1.114.014 115.184 0 208.561-93.423 208.561-208.667 0-91.672-59.081-169.53-141.222-197.552zM675.053 639.158l-2.5-1.43c-10.581-4-24.73.774-37.379 22.901L520.482 846.817c-12.66 22.127-7.484 48.9 14.618 61.545l2.511 1.432c22.103 12.66 50.285 4.985 62.942-17.13l72.411-186.198c9.773-29.331 16.988-57.534 2.089-67.308zm-164.73 4.33l-2.5-1.432c-13.468-6.886-28.578-3.554-41.226 18.573l-87.78 141.49c-12.657 22.114-7.484 48.874 14.619 61.545l2.51 1.432c22.103 12.657 50.285 4.973 62.942-17.142l45.499-141.489c12.646-35.101 14.594-59.938 5.937-62.977z"/></svg>