<svg class="icon" viewBox="0 0 1058 1024" xmlns="http://www.w3.org/2000/svg" width="206.641" height="200"><defs><style/></defs><path d="M375.97 1024a161.774 161.774 0 01-41.069-5.288l-258.09-67.908A102.938 102.938 0 010 851.262V114.161a102.977 102.977 0 01134.157-98.13l225.16 71.537a72.962 72.962 0 0046.991-.739L623.77 9.318A162.94 162.94 0 01725.347 7.01l260.72 79.663a102.38 102.38 0 0172.91 98.492V913.65a102.964 102.964 0 01-145.069 93.892l-191.14-85.753a73.87 73.87 0 00-57.463-1.153l-229.008 91.818A163.031 163.031 0 01375.97 1024zM102.847 99.426a14.722 14.722 0 00-8.566 2.85 14.515 14.515 0 00-6.04 11.885v737.101a14.657 14.657 0 0010.977 14.19l258.142 67.935a74.375 74.375 0 0046.071-2.89l228.996-91.793a162.396 162.396 0 01126.407 2.592l191.102 85.753h.065a14.631 14.631 0 0013.957-1.101 14.256 14.256 0 006.713-12.299V185.153a14.631 14.631 0 00-10.367-14.087l-260.76-79.65a74.634 74.634 0 00-46.188 1.038L435.895 169.9a163.394 163.394 0 01-103.236 1.801l-225.224-71.55a15.176 15.176 0 00-4.588-.725z"/><path d="M370.514 836.436a44.127 44.127 0 01-44.063-44.062v-545.17a44.063 44.063 0 0188.255 0v545.118a44.127 44.127 0 01-44.192 44.114zm317.95-136.27a44.14 44.14 0 01-44.127-44.062v-363.49a44.127 44.127 0 1188.254 0v363.425a44.14 44.14 0 01-44.127 44.127z"/></svg>