<svg class="icon" viewBox="0 0 1024 1024" xmlns="http://www.w3.org/2000/svg" width="200" height="200"><defs><style/></defs><path d="M674 264c-3.3-12.5-7.5-24.9-12.6-36.9-13.6-31.8-33-60.4-57.7-84.9-24.7-24.5-53.4-43.7-85.4-57.1-33.1-13.9-68.3-20.9-104.4-20.9-36.1 0-71.3 7-104.4 20.9-32 13.4-60.7 32.6-85.4 57.1-24.7 24.5-44.1 53.1-57.7 84.9-14.1 33-21.2 68.1-21.2 104.2 0 6.9.3 13.8.8 20.7-22.7 12.2-43.3 28.2-60.9 47.7-37.3 41.1-57.8 94.2-57.8 149.4 0 30.2 6 59.7 17.9 87.4 11.4 26.6 27.7 50.6 48.4 71.1 20.7 20.5 44.7 36.6 71.5 47.9 15.7 6.6 32 11.4 48.7 14.3H296l14.5-31v-45h-89.2c-67.3-14.4-118.1-73.9-118.1-144.7 0-75.5 57.8-138.1 131.6-146.9-8.8-21.9-13.8-45.8-13.8-70.9 0-105.6 86.3-191.1 192.8-191.1 103.1 0 187.4 80.3 192.6 181.1L675 264h-1z"/><path d="M916.9 336.9c-51.4-51.4-119.8-79.7-192.5-79.7-52.8 0-103.9 15.2-148 43.8-31.3 20.4-58 46.9-78.5 77.7-28.1-12.6-58.6-19.1-89.9-19.1-59 0-114.5 23-156.2 64.7-41.7 41.7-64.7 97.2-64.7 156.2 0 45.6 13.8 89.4 39.9 126.6 18.3 26.1 41.6 47.6 68.6 63.5l32.4-69.5c-39.7-26.5-64.9-71.8-64.9-120.5 0-79.9 65-145 145-145 29.7 0 58.2 9 82.6 26l4.3 3c5.6 5.3 10.3 11.7 13.6 18.8 7.5 15.7 24.3 24 40.7 21.2 3.4-.6 6.7-1.6 9.9-3.1 19-9 27.1-31.7 18.1-50.6-4.7-10.1-10.6-19.4-17.5-27.9 35.8-55.2 97.8-89.7 164.5-89.7 108.2 0 196.2 88 196.2 196.2 0 19.5-2.9 38.5-8.2 56.4h.1l-.2.4c-5.5 18.2-13.5 35.3-23.7 50.9L820 784c42.7-16.1 81-42.7 111.1-77.7 42.2-49.2 65.4-111.9 65.4-176.8.1-72.8-28.2-141.2-79.6-192.6z"/><path d="M480.9 959.8c-6 0-12.1-1.4-17.8-4.5-18.5-9.9-25.5-32.9-15.7-51.4l19.3-36.2c9.9-18.5 32.9-25.5 51.4-15.7 18.5 9.9 25.5 32.9 15.7 51.4l-19.3 36.2c-6.9 12.8-20 20.2-33.6 20.2zM563 816.1c-6 0-12.1-1.4-17.8-4.5-18.5-9.9-25.5-32.9-15.7-51.4l19.3-36.2c9.9-18.5 32.9-25.5 51.4-15.7 18.5 9.9 25.5 32.9 15.7 51.4l-19.3 36.2c-6.6 12.5-19.5 20.2-33.6 20.2zm101.3 143.7c-6 0-12.1-1.4-17.8-4.5-18.5-9.9-25.5-32.9-15.7-51.4l19.3-36.2c9.9-18.5 32.9-25.5 51.4-15.7 18.5 9.9 25.5 32.9 15.7 51.4l-19.3 36.2c-6.8 12.8-20 20.2-33.6 20.2zm82.1-143.7c-6 0-12.1-1.4-17.8-4.5-18.5-9.9-25.5-32.9-15.7-51.4l19.3-36.2c9.9-18.5 32.9-25.5 51.4-15.7 18.5 9.9 25.5 32.9 15.7 51.4L780 795.9c-6.9 12.9-20 20.2-33.6 20.2zM296.2 959.8c-6 0-12.1-1.4-17.8-4.5-18.5-9.9-25.5-32.9-15.7-51.4l19.3-36.2c9.9-18.5 32.9-25.5 51.4-15.7 18.5 9.9 25.5 32.9 15.7 51.4l-19.3 36.2c-6.8 12.8-20 20.2-33.6 20.2zm82.1-143.7c-6 0-12.1-1.4-17.8-4.5-18.5-9.9-25.5-32.9-15.7-51.4l19.3-36.2c9.9-18.5 32.9-25.5 51.4-15.7 18.5 9.9 25.5 32.9 15.7 51.4L411.9 796c-6.9 12.8-20 20.1-33.6 20.1z"/></svg>